<svg width="221" height="60" viewBox="0 0 221 60" fill="none" xmlns="http://www.w3.org/2000/svg">
<path d="M27.8446 28.1047C27.8475 28.1038 27.8503 28.103 27.8575 28.1006C27.9714 28.3284 28.0857 28.556 28.2 28.7836L28.2013 28.7863C28.4504 29.2821 28.6994 29.7779 28.9445 30.2764C29.0386 30.4666 29.1142 30.5664 29.3762 30.4918C29.6214 30.4218 29.8713 30.3901 30.1212 30.3883C30.3711 30.3901 30.621 30.4218 30.8662 30.4918C31.1282 30.5664 31.2038 30.4666 31.298 30.2764C31.5439 29.7768 31.7938 29.279 32.0437 28.7812L32.0443 28.78C32.158 28.5534 32.2718 28.3268 32.3852 28.1L32.3956 28.1035L32.3996 28.1047C32.4027 28.1056 32.4057 28.1066 32.4141 28.1094C32.3754 28.3097 32.3326 28.5096 32.2899 28.7095C32.1916 29.1693 32.0933 29.6293 32.0439 30.0946C31.9917 30.5794 31.8061 30.9515 31.4751 31.2816C31.3595 31.3972 31.2569 31.4541 31.0518 31.4196C30.7441 31.3683 30.4336 31.3384 30.1221 31.3347C29.8116 31.3394 29.5011 31.3683 29.1925 31.4196C28.9864 31.4541 28.8848 31.3972 28.7692 31.2816C28.4381 30.9505 28.2516 30.5794 28.2004 30.0946C28.1503 29.6288 28.0521 29.1686 27.9539 28.7084C27.9114 28.5088 27.8688 28.3093 27.8302 28.1094C27.8386 28.1066 27.8416 28.1056 27.8446 28.1047Z" fill="#010080"/>
<path d="M13.712 33.1343C13.6271 32.6364 13.6365 32.6345 14.1512 32.6373C14.2294 32.6378 14.3076 32.6383 14.3857 32.6389H14.3869C14.6464 32.6409 14.9059 32.6428 15.1657 32.6392C15.3195 32.6373 15.4072 32.656 15.3372 32.8471C15.2654 33.0457 15.2076 33.2518 15.2179 33.4681C15.2207 33.5278 15.2039 33.58 15.1582 33.6239C14.8861 33.8824 14.6145 34.1421 14.3326 34.4116L14.071 34.6617C13.8966 34.1479 13.7996 33.6416 13.7129 33.1334L13.712 33.1343Z" fill="#010080"/>
<path d="M22.8481 45.3223C20.5907 44.0505 18.6017 42.4607 17.0259 40.385C16.611 39.8386 16.2147 39.2782 15.8548 38.6926C15.7578 38.5341 15.8053 38.4922 15.9527 38.4297C16.5326 38.1873 16.8282 38.2264 17.246 38.6264C17.7905 38.8092 18.2194 38.5649 18.6251 38.2497C18.9048 38.0324 19.2042 37.8451 19.5035 37.6578C19.7269 37.518 19.9503 37.3781 20.1655 37.2259L20.1819 37.2142C20.2652 37.1546 20.3479 37.0953 20.3855 37.2781C20.5117 37.8877 20.641 38.4962 20.7704 39.1048C20.8149 39.3144 20.8595 39.5245 20.904 39.7342C21.0392 40.2946 21.1744 40.855 21.3096 41.4163C21.6947 42.8411 22.2961 44.168 23.1418 45.3876C23.024 45.4439 22.9557 45.3963 22.8932 45.3527C22.878 45.3422 22.8632 45.3318 22.8481 45.3233V45.3223Z" fill="#010080"/>
<path fill-rule="evenodd" clip-rule="evenodd" d="M27.2334 46.8702C26.232 46.4888 25.3657 45.9107 24.6841 45.0734C23.5978 43.9759 23.015 42.6229 22.7129 41.1366C22.514 40.1565 22.5631 39.1681 22.6122 38.1804C22.6222 37.9784 22.6323 37.7765 22.6402 37.5746C22.6691 36.838 22.6803 36.1042 22.4751 35.3843C22.146 34.23 21.1147 33.6173 20.0265 33.9717C20.1132 34.0365 20.2062 34.0871 20.2989 34.1374C20.4395 34.2138 20.5793 34.2898 20.6951 34.4146C19.7427 34.6377 19.0196 35.2024 18.2753 35.7836C18.0366 35.97 17.7957 36.1582 17.5444 36.3373C17.9093 36.3809 18.2114 36.322 18.5449 36.2569C18.6035 36.2455 18.6629 36.2339 18.7239 36.2226C18.4137 36.5757 18.0961 36.8408 17.7811 37.1036L17.7206 37.1541C17.664 37.2013 17.621 37.1739 17.5775 37.1463C17.565 37.1384 17.5525 37.1305 17.5397 37.1243C16.7564 36.7354 16.003 36.7149 15.2813 37.3313C15.2176 37.2054 15.1546 37.0801 15.0919 36.9552L15.0914 36.9543C14.9313 36.6356 14.7727 36.3201 14.6081 36.0081C14.5504 35.8997 14.6056 35.8528 14.6628 35.8042C14.6749 35.7938 14.6872 35.7834 14.6985 35.7722C15.0369 35.4388 15.406 35.1409 15.7751 34.843C15.888 34.7518 16.001 34.6606 16.113 34.5684C16.3863 34.3437 16.6184 34.0948 16.7369 33.7497C16.8059 33.5483 17.2488 33.3945 17.3998 33.5138C17.4925 33.5872 17.4664 33.7107 17.4454 33.8103C17.4431 33.8208 17.441 33.8312 17.439 33.8411C17.384 34.1143 17.4959 34.1824 17.7439 34.1479C17.8287 34.1362 17.9147 34.1334 18.0009 34.1306C18.0795 34.1281 18.1583 34.1255 18.2362 34.1162C18.7108 34.0593 19.0876 33.7078 19.136 33.2313C19.1584 33.014 19.2526 32.9012 19.4326 32.8164C19.5646 32.7538 19.6946 32.6853 19.8464 32.6053C19.9208 32.5661 20.0004 32.5242 20.0881 32.4788C19.4633 32.4285 18.9169 32.407 18.4582 32.7483C17.9222 33.1472 17.3276 33.1303 16.7002 33.1126L16.611 33.1101C17.0259 32.3287 17.5201 31.6471 18.2166 31.1286C19.7608 29.9799 21.87 30.1636 23.3059 31.566C24.2654 32.5021 24.6934 33.6873 24.9153 34.9694C25.0738 35.8839 25.1594 36.8065 25.2449 37.7292L25.245 37.7296C25.2862 38.1745 25.3275 38.6197 25.3769 39.0638C25.4692 39.8918 25.5988 40.7114 25.7993 41.5208C25.8058 41.5403 25.8114 41.5599 25.8161 41.5804C26.1247 42.7199 26.5462 43.8174 27.0842 44.8673C27.4936 45.6655 27.9672 46.4282 28.5743 47.1872C28.0726 47.121 27.6456 47.0269 27.2362 46.8711L27.2334 46.8702ZM15.7411 36.1181C15.704 36.0661 15.6659 36.0129 15.6133 35.9895V35.9886C15.9536 35.5979 16.3611 35.6939 16.7742 35.8077C16.5047 35.9466 16.2436 36.0818 15.9844 36.2226C15.863 36.2886 15.8033 36.2051 15.7411 36.1181Z" fill="#010080"/>
<path d="M30.3543 45.7233C30.2415 45.8865 30.1781 45.9751 30.1203 45.9909C30.0625 45.9751 29.999 45.8865 29.8862 45.7233C28.9957 44.4356 28.5482 42.9856 28.3468 41.4508C28.1729 40.1282 28.1883 38.7985 28.2038 37.4693V37.4688C28.2069 37.2013 28.21 36.9338 28.2115 36.6664C28.2155 35.956 28.2306 35.2451 28.2457 34.5344L28.2458 34.5308C28.2521 34.2362 28.2583 33.9416 28.2638 33.6472C28.2656 33.5418 28.2768 33.4364 28.3169 33.3292C28.3169 33.3307 28.3171 33.3321 28.3173 33.3334C28.3176 33.3348 28.3179 33.3362 28.3183 33.3376L28.3188 33.3395C28.413 33.9875 28.6321 34.6104 28.9631 35.1745C29.0498 35.3219 29.1356 35.4701 29.2214 35.6184C29.3714 35.88 29.556 36.1156 29.7404 36.3511C29.8289 36.464 29.9173 36.5769 30.0018 36.6925C30.0457 36.7532 30.0839 36.7765 30.1203 36.7746C30.1566 36.7765 30.1949 36.7532 30.2387 36.6925C30.3221 36.5788 30.4091 36.4678 30.496 36.3568C30.682 36.1194 30.8679 35.882 31.0191 35.6184C31.104 35.4701 31.1907 35.3219 31.2774 35.1745C31.6085 34.6104 31.8276 33.9875 31.9218 33.3395C31.9218 33.3379 31.9219 33.3365 31.9222 33.3351C31.9224 33.3338 31.9228 33.3325 31.9231 33.331L31.9236 33.3292C31.9646 33.4364 31.9749 33.5418 31.9768 33.6472C31.9822 33.9429 31.9885 34.2386 31.9948 34.5344C32.0099 35.2451 32.025 35.956 32.029 36.6664C32.0306 36.9339 32.0337 37.2014 32.0368 37.4689C32.0522 38.7982 32.0676 40.1282 31.8938 41.4508C31.6924 42.9847 31.2448 44.4356 30.3543 45.7233Z" fill="#010080"/>
<path d="M44.3867 38.6917C44.0268 39.2773 43.6305 39.8377 43.2156 40.3841C41.6407 42.4597 39.6508 44.0486 37.3934 45.3214C37.386 45.3255 37.3788 45.33 37.3716 45.3347L37.3637 45.34C37.3582 45.3437 37.3526 45.3476 37.3471 45.3514C37.2846 45.3949 37.2169 45.4418 37.0996 45.3858C37.9454 44.1661 38.5459 42.8383 38.9319 41.4145C39.0671 40.8541 39.2023 40.2937 39.3375 39.7323C39.382 39.5225 39.4265 39.3128 39.4711 39.103C39.6004 38.4944 39.7297 37.8858 39.8559 37.2763C39.8936 37.0934 39.9763 37.1527 40.0596 37.2123L40.076 37.224C40.2927 37.3777 40.5176 37.5185 40.7426 37.6592C41.0403 37.8454 41.3381 38.0317 41.6164 38.2479C42.023 38.564 42.4519 38.8073 42.9955 38.6246C43.4132 38.2246 43.7088 38.1854 44.2888 38.4278C44.4371 38.4894 44.4846 38.5323 44.3867 38.6908V38.6917Z" fill="#010080"/>
<path fill-rule="evenodd" clip-rule="evenodd" d="M45.1528 36.9544L45.0518 37.1552C45.0223 37.2138 44.9927 37.2725 44.963 37.3313C44.2413 36.7149 43.4878 36.7354 42.7046 37.1243C42.6922 37.1305 42.6801 37.1381 42.6681 37.1458C42.6239 37.1739 42.5801 37.2018 42.5237 37.1541L42.477 37.1153C42.1567 36.8485 41.8343 36.5801 41.5204 36.2226C41.5774 36.2333 41.6333 36.2443 41.6882 36.2551C42.0256 36.3214 42.3311 36.3814 42.6999 36.3373C42.4486 36.1582 42.2077 35.9701 41.969 35.7836C41.2247 35.2024 40.5016 34.6377 39.5492 34.4146C39.6656 34.2892 39.8053 34.2133 39.9458 34.1371C40.0383 34.0868 40.1311 34.0365 40.2177 33.9717C39.1296 33.6164 38.0992 34.23 37.7691 35.3843C37.5631 36.1042 37.5752 36.838 37.6041 37.5746C37.612 37.7764 37.622 37.9782 37.6321 38.18C37.6812 39.1677 37.7303 40.1565 37.5314 41.1366C37.2292 42.6229 36.6465 43.9759 35.5602 45.0734C34.8776 45.9098 34.0123 46.4888 33.0109 46.8702C32.6015 47.0259 32.1744 47.121 31.6728 47.1863C32.2798 46.4273 32.7535 45.6655 33.1628 44.8664C33.7009 43.8164 34.1223 42.719 34.431 41.5795C34.4343 41.5618 34.44 41.5441 34.4459 41.5258L34.4478 41.5198C34.6482 40.7114 34.7778 39.8908 34.8702 39.0628C34.9196 38.6189 34.9608 38.1741 35.002 37.7293L35.0022 37.7282C35.0877 36.8055 35.1732 35.883 35.3317 34.9685C35.5536 33.6863 35.9816 32.5012 36.9411 31.565C38.378 30.1636 40.4863 29.9789 42.0304 31.1277C42.727 31.6461 43.2202 32.3278 43.6361 33.1092L43.5468 33.1116C42.9195 33.1294 42.3249 33.1462 41.7889 32.7474C41.3302 32.4061 40.7837 32.4275 40.159 32.4779C40.2468 32.5233 40.3264 32.5653 40.4008 32.6046L40.4016 32.605C40.5526 32.6847 40.6822 32.753 40.8145 32.8154C40.9945 32.9003 41.0886 33.0131 41.111 33.2304C41.1595 33.7078 41.5353 34.0593 42.0108 34.1153C42.0887 34.1246 42.1675 34.1272 42.2461 34.1297C42.3323 34.1325 42.4184 34.1353 42.5032 34.147C42.7512 34.1815 42.8622 34.1134 42.8081 33.8402L42.8048 33.8239L42.8017 33.8093C42.7807 33.7098 42.7545 33.5862 42.8472 33.5129C42.9983 33.3935 43.4412 33.5474 43.5102 33.7488C43.6286 34.0948 43.8617 34.3428 44.134 34.5675C44.2484 34.6618 44.3638 34.7551 44.4793 34.8483C44.8453 35.1441 45.2119 35.4403 45.5485 35.7713C45.5599 35.7825 45.5723 35.793 45.5846 35.8034C45.6416 35.8517 45.6965 35.8983 45.639 36.0072L45.6362 36.0081C45.4715 36.3201 45.3129 36.6357 45.1528 36.9544ZM43.4673 35.8086L43.4685 35.8092L43.4673 35.8095V35.8086ZM43.4685 35.8092C43.8802 35.6956 44.2873 35.6001 44.6282 35.9904C44.5754 36.0135 44.5373 36.0668 44.5001 36.119C44.438 36.2059 44.3783 36.2894 44.2571 36.2235C43.9983 36.0829 43.7376 35.947 43.4685 35.8092Z" fill="#010080"/>
<path d="M46.5304 33.1343C46.4437 33.6425 46.3467 34.1488 46.1723 34.6626C45.7956 34.3018 45.4413 33.9623 45.0851 33.6248C45.0385 33.581 45.0226 33.5288 45.0254 33.4691C45.0357 33.2527 44.9779 33.0467 44.9061 32.8481C44.8361 32.6569 44.9238 32.6383 45.0777 32.6401C45.337 32.6437 45.597 32.6418 45.857 32.6399H45.8576C45.9357 32.6393 46.014 32.6387 46.0922 32.6383C46.6069 32.6355 46.6162 32.6364 46.5313 33.1353L46.5304 33.1343Z" fill="#010080"/>
<path fill-rule="evenodd" clip-rule="evenodd" d="M29.8731 4.63224C30.0516 4.42607 30.3715 4.42607 30.55 4.63224L33.5246 8.06693C43.2371 9.50761 50.9155 17.186 52.3562 26.8986L55.7909 29.8731C55.9971 30.0516 55.9971 30.3715 55.7909 30.55L52.3562 33.5246C50.9155 43.2371 43.2371 50.9155 33.5246 52.3562L30.55 55.7909C30.3715 55.997 30.0516 55.997 29.8731 55.7909L26.8986 52.3562C17.186 50.9155 9.50761 43.2371 8.06693 33.5246L4.63225 30.55C4.42607 30.3715 4.42607 30.0516 4.63225 29.8731L8.06693 26.8986C9.50761 17.186 17.186 9.50761 26.8986 8.06693L29.8731 4.63224ZM29.2139 17.652C29.2009 16.9899 29.2615 16.3419 29.4759 15.7125L29.4741 15.7116C28.6283 16.9853 28.5015 18.3765 28.8204 19.9066C27.8246 18.6721 27.2148 17.3797 27.5887 15.7964C27.7313 15.1922 28.0167 14.6598 28.3962 14.173L28.4411 14.1153C28.8822 13.5482 29.3226 12.982 29.6139 12.3137C29.8321 11.813 29.9617 11.2899 30.0606 10.7463C30.0839 10.7603 30.1025 10.7761 30.1193 10.792C30.1361 10.7761 30.1548 10.7603 30.1781 10.7463C30.2769 11.2899 30.4065 11.813 30.6247 12.3137C30.9162 12.9845 31.3589 13.5525 31.8026 14.1218L31.8425 14.173C32.222 14.6598 32.5073 15.1922 32.65 15.7964C33.0248 17.3797 32.415 18.6721 31.4182 19.9066C31.7371 18.3774 31.6103 16.9862 30.7646 15.7116C30.979 16.341 31.0406 16.9899 31.0266 17.651C31.0126 18.3261 30.8737 18.9751 30.6835 19.6176C30.5563 20.0476 30.4301 20.4782 30.3038 20.9088L30.3036 20.9094C30.2485 21.0976 30.1933 21.2858 30.138 21.4741C30.1352 21.4662 30.1322 21.458 30.1291 21.4499L30.1256 21.4403L30.1203 21.4256C30.1183 21.4315 30.1162 21.4373 30.1141 21.4431L30.1078 21.46L30.1052 21.4672L30.1025 21.475C30.0475 21.2875 29.9925 21.1 29.9375 20.9125L29.936 20.9072L29.9358 20.9066C29.8098 20.477 29.6839 20.0475 29.5571 19.6185C29.3678 18.976 29.2279 18.3261 29.2139 17.652ZM28.8913 23.6569C28.3713 22.8269 27.5225 22.4845 26.6694 22.1403L26.6497 22.1324C26.8241 22.3319 26.9751 22.5259 27.0031 22.8084C27.0936 23.7092 27.5169 24.0933 28.4167 24.0998C28.5873 24.1008 28.6535 24.1586 28.6927 24.3115C28.7581 24.5667 28.8293 24.8207 28.9004 25.0744C28.9327 25.1897 28.9649 25.3049 28.9967 25.4202L29.0657 25.4118C29.0657 25.3014 29.0649 25.1909 29.0641 25.0803C29.0621 24.8148 29.0602 24.5488 29.0694 24.2835C29.0769 24.0504 29.0125 23.8509 28.8904 23.6569H28.8913ZM14.4032 26.6344C14.4168 26.6261 14.4301 26.6181 14.4412 26.61C14.7666 26.3722 15.1237 26.4058 15.5471 26.4962C15.2123 26.6585 14.955 26.8189 14.7013 26.9904C14.558 27.0873 14.5056 26.993 14.4538 26.8998C14.4298 26.8566 14.4059 26.8136 14.3731 26.79C14.2696 26.7156 14.3402 26.6727 14.4032 26.6344ZM29.6298 27.4613C29.6374 27.4566 29.641 27.446 29.6461 27.4309C29.6491 27.422 29.6526 27.4115 29.6578 27.3998C29.6131 27.3682 29.5686 27.3361 29.524 27.304L29.5207 27.3017C29.2862 27.1329 29.0482 26.9617 28.7682 26.8338C28.7496 26.9672 28.7971 27.0601 28.8417 27.1473C28.8529 27.1692 28.8639 27.1907 28.8736 27.2124C29.0871 27.6832 29.2009 27.7187 29.6298 27.4613ZM47.8918 31.2461C46.9651 31.2543 46.0385 31.253 45.1118 31.2517L45.1045 31.2517C44.7655 31.2513 44.4264 31.2508 44.0874 31.2508C43.9951 31.2508 43.9028 31.2508 43.7993 31.2014C43.8336 31.1882 43.8678 31.1746 43.9021 31.161C43.9795 31.1303 44.057 31.0995 44.1359 31.0736C44.9201 30.8163 45.4889 30.3053 45.8758 29.5854C45.9169 29.5099 45.9514 29.4773 46.0399 29.4586C47.0451 29.247 48.0624 28.0655 48.124 27.0389C48.1631 26.3834 47.8759 25.8575 47.4386 25.4025C47.1445 25.096 46.8084 24.8373 46.4729 24.579C46.4021 24.5245 46.3313 24.4699 46.2609 24.415C46.1565 24.333 46.0931 24.25 46.0856 24.1064C46.0362 23.0928 45.5597 22.3002 44.783 21.6792C44.73 21.6368 44.6768 21.5944 44.6237 21.5521C43.8975 20.973 43.1733 20.3956 42.6458 19.6101C42.0108 18.6655 41.4355 17.6967 41.305 16.45C40.9842 17.293 40.8248 18.0669 41.0504 18.8791C39.6834 17.8814 39.0158 15.898 39.4653 14.0928C38.7407 14.7073 38.3155 15.4458 38.2251 16.3605C38.0899 17.7219 38.5757 18.8269 39.6452 19.6726C40.1414 20.0654 40.675 20.403 41.209 20.7408C41.5419 20.9514 41.8751 21.1623 42.1992 21.3864C42.7637 21.777 43.3072 22.1954 43.8508 22.6139C43.9743 22.7089 44.0979 22.8041 44.2217 22.8989C44.399 23.0347 44.4821 23.2243 44.5687 23.4219C44.6378 23.5796 44.7091 23.7424 44.8324 23.8872C44.7656 23.8892 44.6993 23.8916 44.6336 23.8939C43.977 23.9173 43.373 23.9388 42.8314 23.532C42.3297 23.1553 41.7404 23.1515 41.1343 23.2215C41.2064 23.26 41.2783 23.299 41.3503 23.338C41.5028 23.4205 41.6556 23.5032 41.8094 23.5823C41.9502 23.6541 42.0164 23.7567 42.0397 23.919C42.1246 24.5083 42.4715 24.8225 43.0636 24.87C43.1503 24.8766 43.2379 24.8794 43.3247 24.8812C43.7778 24.8878 43.7816 24.8868 43.7666 24.4281C43.762 24.2863 43.7899 24.2239 43.9522 24.2155C44.2357 24.2015 44.4455 24.2481 44.5872 24.5409C44.7423 24.8611 45.0141 25.0814 45.2856 25.3015C45.3469 25.3512 45.4084 25.401 45.4684 25.4519C45.581 25.5475 45.696 25.6406 45.8109 25.7337C46.1542 26.0119 46.4976 26.2901 46.7812 26.6352C46.8959 26.7741 46.9192 26.8897 46.8111 27.0436C46.6463 27.2757 46.487 27.5119 46.3278 27.7481C46.26 27.8488 46.1921 27.9494 46.1239 28.0497C46.025 28.1961 45.9486 28.239 45.7611 28.1168C45.6376 28.0362 45.5207 27.943 45.4038 27.8497C45.1473 27.645 44.8905 27.4401 44.5639 27.369C44.1322 27.2758 43.8216 27.0231 43.5065 26.7499C43.0609 26.3639 42.605 25.9891 42.1491 25.6144C42.0456 25.5286 41.9316 25.4519 41.8141 25.3848C41.4989 25.2067 41.2061 25.2309 41.0178 25.4435C40.8415 25.6402 40.8294 25.9964 41.0029 26.2566C41.2056 26.5618 41.4723 26.8088 41.7384 27.0553C41.7918 27.1047 41.8452 27.1541 41.898 27.204C42.1064 27.4003 42.3156 27.596 42.5247 27.7916C42.8669 28.1117 43.209 28.4317 43.5475 28.7546C43.6715 28.873 43.7452 28.8796 43.8664 28.7416C44.018 28.569 44.1822 28.4072 44.3667 28.2255C44.4523 28.1412 44.5424 28.0524 44.6375 27.9564C44.5932 28.1627 44.5541 28.3446 44.5175 28.5151C44.4842 28.6706 44.4528 28.8167 44.4212 28.9635C44.4714 28.9978 44.5177 28.9815 44.5683 28.9637C44.6154 28.9472 44.6664 28.9293 44.728 28.9495C44.4669 29.3188 44.1611 29.619 43.7806 29.8465C43.6728 29.9109 43.6063 29.8559 43.5408 29.8018C43.5276 29.7908 43.5144 29.7799 43.5009 29.7701C42.8761 29.3141 42.2514 28.8572 41.6304 28.3956C41.2716 28.1288 40.8686 27.9476 40.4656 27.7663C40.4194 27.7455 40.3731 27.7247 40.3268 27.7038C40.2447 27.6664 40.1626 27.6283 40.0805 27.5901L40.012 27.5583L39.9576 27.5331C38.7407 26.969 38.9142 25.6458 39.5883 25.0351C39.6324 24.9951 39.6757 24.9537 39.7207 24.9106L39.7212 24.9102C39.737 24.895 39.7531 24.8797 39.7695 24.8641L39.7876 24.8469L39.8056 24.83C37.9146 24.9633 35.0054 28.46 34.927 30.7426C35.687 28.9924 36.9234 27.9518 38.8452 27.7522C36.321 28.8674 34.941 30.8442 34.2603 33.401C33.8622 34.8967 33.7093 36.4249 33.5722 37.9569L33.5704 37.9769C33.557 38.1242 33.5435 38.2722 33.5284 38.4194C33.5249 38.4528 33.5193 38.4858 33.5112 38.534C33.5061 38.5639 33.5001 38.5997 33.4929 38.6451C33.368 38.0008 33.3307 37.4115 33.312 36.824L33.3039 36.5645C33.2435 34.6376 33.183 32.7078 33.4249 30.7902C33.7121 28.5178 34.2986 26.3284 35.4697 24.332C36.0171 23.3996 36.708 22.6033 37.6945 22.1035C38.4312 21.7305 39.2116 21.5981 40.049 21.6307C40.0017 21.6057 39.9544 21.581 39.9072 21.5563C39.8241 21.5128 39.7408 21.4692 39.6583 21.4247C38.6139 20.8643 37.7598 20.1258 37.3598 18.9621C37.0689 18.1154 37.1453 17.2659 37.3281 16.4128C37.5528 15.3619 37.3728 14.3791 36.805 13.4504C36.8721 14.4434 36.5551 15.2994 35.9331 16.0771C35.6028 15.3011 35.1074 14.6577 34.6131 14.0157L34.4888 13.8541C34.002 13.2182 33.5852 12.5478 33.4239 11.7496C33.3966 11.6148 33.3792 11.4779 33.3597 11.324C33.3506 11.2522 33.341 11.1766 33.3298 11.0959C33.0836 11.4074 32.9428 11.73 32.8747 12.0853C32.7395 12.7846 32.8654 13.4513 33.1386 14.0984C33.2379 14.334 33.3483 14.5647 33.4587 14.7953C33.6239 15.1407 33.7892 15.486 33.9172 15.8477C34.5736 17.6995 34.2333 19.4078 33.1787 21.0144C33.1169 21.1083 33.0516 21.1996 32.9711 21.312C32.935 21.3626 32.8957 21.4174 32.8523 21.4787C33.8771 21.1673 34.624 20.6088 35.1676 19.7705C35.2219 19.8173 35.205 19.8641 35.1889 19.9091C35.1848 19.9205 35.1807 19.9318 35.1779 19.943C35.1611 20.0083 35.1406 20.0735 35.1163 20.136C35.0587 20.2835 35.0016 20.4311 34.9445 20.5787L34.9437 20.5809C34.7884 20.9824 34.633 21.3843 34.4683 21.7818C34.2072 22.4112 34.1354 23.1087 34.3088 23.7679C34.3554 23.9441 34.32 24.0542 34.1885 24.1735C33.795 24.5306 33.3708 24.8244 32.8346 24.9157C32.6901 24.9409 32.6174 25.0136 32.5875 25.1544C32.5487 25.3383 32.5016 25.5206 32.4544 25.7029L32.4543 25.7035C32.3394 26.1476 32.2245 26.592 32.2304 27.0585C32.2311 27.1326 32.1926 27.1876 32.1535 27.2436L32.1531 27.2442C32.1482 27.2511 32.1431 27.2584 32.1383 27.2654C32.1328 27.2735 32.1274 27.2815 32.1222 27.2897C31.8108 27.7793 31.505 28.2716 31.2793 28.8385C31.0108 28.4189 30.6042 28.2492 30.1343 28.239H30.1063C29.6363 28.2492 29.2298 28.4189 28.9612 28.8385C28.7356 28.2707 28.4288 27.7784 28.1183 27.2897C28.1133 27.282 28.1082 27.2744 28.103 27.2668C28.0981 27.2597 28.0931 27.2526 28.0881 27.2456C28.0486 27.1896 28.0094 27.1339 28.0101 27.0585C28.0161 26.592 27.9012 26.148 27.7863 25.7038C27.7391 25.5212 27.6919 25.3386 27.653 25.1544C27.6232 25.0136 27.5504 24.94 27.4059 24.9157C26.8707 24.8244 26.4455 24.5306 26.052 24.1735C25.9205 24.0532 25.8851 23.9432 25.9317 23.7679C26.1051 23.1096 26.0334 22.4112 25.7723 21.7818C25.6075 21.3841 25.4521 20.9825 25.2968 20.5809C25.2394 20.4325 25.1821 20.2842 25.1242 20.136C25.1 20.0735 25.0795 20.0083 25.0627 19.943C25.0598 19.9318 25.0557 19.9204 25.0516 19.909C25.0355 19.8643 25.0187 19.818 25.0729 19.7705C25.6165 20.6088 26.3634 21.1673 27.3882 21.4787C27.338 21.4073 27.2931 21.3446 27.252 21.2872C27.1796 21.1859 27.119 21.1013 27.0618 21.0144C26.0072 19.4078 25.666 17.6995 26.3233 15.8477C26.4514 15.486 26.6166 15.1407 26.7819 14.7953C26.8922 14.5647 27.0026 14.334 27.1019 14.0984C27.3742 13.4513 27.5001 12.7846 27.3658 12.0853C27.2968 11.73 27.157 11.4083 26.9108 11.0959C26.8981 11.184 26.8876 11.266 26.8776 11.3438C26.8589 11.4891 26.8421 11.6203 26.8166 11.7496C26.6553 12.5478 26.2394 13.2182 25.7518 13.8541C25.7104 13.908 25.6689 13.9619 25.6275 14.0157C25.1332 14.6577 24.6377 15.3011 24.3074 16.0771C23.6854 15.2994 23.3684 14.4434 23.4356 13.4504C22.8677 14.3791 22.6868 15.3619 22.9125 16.4128C23.0952 17.2659 23.1717 18.1145 22.8807 18.9621C22.4807 20.1258 21.6275 20.8633 20.5823 21.4247C20.4997 21.4692 20.4167 21.5127 20.3335 21.5562L20.3327 21.5566L20.2434 21.6034L20.1916 21.6307C21.0289 21.599 21.8103 21.7305 22.546 22.1035C23.5325 22.6023 24.2235 23.3986 24.7708 24.332C25.942 26.3284 26.5294 28.5178 26.8157 30.7902C27.0575 32.7079 26.997 34.6376 26.9366 36.5645L26.9285 36.824C26.9099 37.4115 26.8726 38.0017 26.7476 38.6451C26.7408 38.6019 26.7349 38.5673 26.73 38.5381C26.7215 38.4879 26.7157 38.4537 26.7122 38.4194C26.6963 38.2656 26.6823 38.1117 26.6683 37.9569C26.5313 36.424 26.3784 34.8967 25.9802 33.401C25.2995 30.8442 23.9195 28.8674 21.3954 27.7522C23.3171 27.9518 24.5545 28.9924 25.3135 30.7426C25.2352 28.46 22.3259 24.9633 20.4349 24.83C20.4637 24.857 20.4912 24.8833 20.5181 24.909L20.5193 24.9101L20.5196 24.9104C20.5644 24.9533 20.6076 24.9946 20.6522 25.0351C21.3264 25.6458 21.4998 26.969 20.2829 27.5331C20.2419 27.5521 20.201 27.5711 20.1601 27.5902C20.0782 27.6283 19.9964 27.6665 19.9137 27.7038C19.8627 27.727 19.8117 27.75 19.7606 27.773C19.3625 27.9526 18.9647 28.132 18.6101 28.3956C17.9891 28.8572 17.3644 29.3141 16.7396 29.7701L16.7307 29.7768C16.7257 29.7806 16.7207 29.7846 16.7158 29.7886L16.6997 29.8018C16.6343 29.8559 16.5677 29.9109 16.4599 29.8465C16.0795 29.619 15.7736 29.3188 15.5125 28.9495C15.5744 28.9287 15.6253 28.9467 15.6725 28.9633C15.7228 28.981 15.7688 28.9972 15.8193 28.9635C15.7879 28.8175 15.7567 28.6721 15.7235 28.5174C15.6868 28.3462 15.6476 28.1637 15.603 27.9564C15.6939 28.048 15.7802 28.1329 15.8624 28.2139C16.0515 28.4 16.2195 28.5655 16.3741 28.7416C16.4953 28.8796 16.569 28.873 16.693 28.7546C17.0322 28.431 17.3743 28.1111 17.7164 27.7911L17.7173 27.7902C17.9259 27.5951 18.1347 27.3998 18.3425 27.204C18.3934 27.1561 18.4447 27.1086 18.496 27.0612C18.7645 26.8128 19.0334 26.5642 19.2377 26.2566C19.4111 25.9955 19.3981 25.6402 19.2228 25.4435C19.0335 25.2318 18.7416 25.2067 18.4264 25.3848C18.309 25.451 18.1961 25.5284 18.0917 25.6141L17.9961 25.6929C17.5728 26.0415 17.1485 26.3909 16.7341 26.7499C16.4189 27.0231 16.1084 27.2758 15.6767 27.369C15.35 27.4401 15.0933 27.6449 14.8368 27.8496C14.7199 27.9429 14.6029 28.0363 14.4794 28.1168C14.292 28.239 14.2155 28.1961 14.1167 28.0497C14.0556 27.9597 13.9949 27.8696 13.9342 27.7796C13.7678 27.5327 13.6016 27.2861 13.4295 27.0436C13.3204 26.8897 13.3446 26.7741 13.4593 26.6352C13.7455 26.2878 14.0911 26.0077 14.4365 25.7279C14.5491 25.6367 14.6618 25.5454 14.7722 25.4519C14.8318 25.4014 14.8928 25.3519 14.9539 25.3024C15.2254 25.0824 15.4981 24.8613 15.6533 24.5409C15.7951 24.249 16.0049 24.2015 16.2883 24.2155C16.4506 24.2239 16.4786 24.2863 16.4739 24.4281C16.459 24.8868 16.4627 24.8878 16.9159 24.8812C17.0026 24.8803 17.0902 24.8775 17.177 24.87C17.7691 24.8225 18.115 24.5083 18.2008 23.919C18.2241 23.7576 18.2912 23.6551 18.4311 23.5823C18.5851 23.5031 18.7377 23.4205 18.8903 23.3379C18.9622 23.299 19.0342 23.26 19.1062 23.2215C18.501 23.1515 17.9108 23.1553 17.4091 23.532C16.8675 23.9388 16.2635 23.9173 15.6069 23.8939C15.5412 23.8916 15.4749 23.8892 15.4081 23.8872C15.5321 23.7421 15.6035 23.5789 15.6727 23.4209C15.759 23.2236 15.8418 23.0345 16.0189 22.8989C16.1391 22.8068 16.259 22.7145 16.3789 22.6222C16.9261 22.2012 17.4731 21.7803 18.0413 21.3864C18.3666 21.1612 18.7009 20.9496 19.0353 20.738C19.5676 20.4012 20.1 20.0643 20.5953 19.6726C21.6648 18.8269 22.1506 17.7219 22.0154 16.3605C21.925 15.4458 21.4998 14.7073 20.7753 14.0928C21.2247 15.898 20.5571 17.8814 19.1901 18.8791C19.4158 18.0669 19.2573 17.293 18.9356 16.45C18.805 17.6967 18.2288 18.6655 17.5947 19.6101C17.0673 20.3956 16.3431 20.973 15.6168 21.5521C15.5637 21.5944 15.5106 21.6368 15.4575 21.6792C14.6817 22.3002 14.2043 23.0928 14.1549 24.1064C14.1474 24.25 14.084 24.3339 13.9796 24.415C13.9092 24.4699 13.8385 24.5244 13.7677 24.5789C13.4321 24.8373 13.096 25.096 12.8019 25.4025C12.3646 25.8584 12.0774 26.3834 12.1166 27.0389C12.1781 28.0646 13.1954 29.247 14.2006 29.4586C14.2892 29.4773 14.3237 29.5099 14.3647 29.5854C14.7517 30.3044 15.3205 30.8163 16.1047 31.0736C16.1809 31.0986 16.2555 31.1282 16.3304 31.158L16.3309 31.1582C16.3675 31.1727 16.4043 31.1873 16.4413 31.2014C16.3387 31.2508 16.2464 31.2508 16.1531 31.2508C15.8141 31.2508 15.4751 31.2513 15.1361 31.2517L15.1287 31.2517C14.2021 31.253 13.2754 31.2543 12.3488 31.2461C12.1203 31.2443 12.0728 31.3095 12.0942 31.5268C12.109 31.677 12.1224 31.8274 12.1359 31.9778C12.175 32.4153 12.2141 32.8528 12.2863 33.2872C12.7842 36.2608 14.0132 38.9108 15.837 41.297C17.5192 43.4966 19.5696 45.2664 22.022 46.5606C24.0342 47.6218 26.1686 48.3174 28.4186 48.6531C28.5677 48.6754 28.6535 48.7258 28.7272 48.8638C29.103 49.5734 29.517 50.2606 29.9823 50.918C30.0373 50.9954 30.0802 51.0355 30.1212 51.0448C30.1622 51.0355 30.2051 50.9944 30.2592 50.918C30.7245 50.2606 31.1376 49.5743 31.5143 48.8638C31.587 48.7258 31.6728 48.6754 31.8229 48.6531C34.0729 48.3174 36.2073 47.6218 38.2195 46.5606C40.6718 45.2673 42.7223 43.4976 44.4044 41.297C46.2283 38.9118 47.4573 36.2618 47.9552 33.2872C48.0293 32.8462 48.0687 32.4015 48.1081 31.9562L48.1083 31.9541C48.1209 31.8117 48.1335 31.6692 48.1473 31.5268C48.1687 31.3095 48.1202 31.2443 47.8927 31.2461H47.8918ZM33.2384 22.8084C33.1489 23.7092 32.7246 24.0933 31.8248 24.0998H31.8239C31.6532 24.1008 31.587 24.1586 31.5478 24.3115C31.4765 24.5898 31.3989 24.8665 31.3213 25.1432C31.2954 25.2355 31.2695 25.3278 31.2439 25.4202L31.1749 25.4118C31.1749 25.3027 31.1756 25.1936 31.1763 25.0844C31.178 24.8175 31.1797 24.5502 31.1711 24.2835C31.1637 24.0504 31.228 23.8509 31.3502 23.6569C31.8714 22.8264 32.72 22.4841 33.5736 22.1397L33.5918 22.1324C33.4174 22.3319 33.2663 22.5259 33.2384 22.8084ZM45.8684 26.79C45.9724 26.7152 45.9014 26.6723 45.8378 26.6339C45.8244 26.6258 45.8113 26.6179 45.8003 26.61C45.4749 26.3722 45.1178 26.4067 44.6944 26.4962C45.0292 26.6585 45.2865 26.8198 45.5402 26.9904C45.6835 27.0873 45.7359 26.993 45.7877 26.8998C45.8117 26.8566 45.8356 26.8136 45.8684 26.79ZM31.3986 27.1493C31.3879 27.1702 31.3773 27.1907 31.3679 27.2114C31.1544 27.6823 31.0406 27.7177 30.6117 27.4604C30.6046 27.4563 30.6009 27.4455 30.5956 27.4301C30.5925 27.4211 30.5889 27.4106 30.5837 27.3988C30.6293 27.3666 30.6747 27.3339 30.7202 27.3012C30.9548 27.1324 31.1921 26.9617 31.4733 26.8329C31.4921 26.9671 31.4439 27.061 31.3986 27.1493Z" fill="#010080"/>
<path fill-rule="evenodd" clip-rule="evenodd" d="M34.3837 4.09017L31.3923 0.636092C30.6579 -0.21203 29.3422 -0.212031 28.6077 0.636091L25.6163 4.09017C14.6167 5.93821 5.93821 14.6167 4.09017 25.6163L0.636093 28.6077C-0.212031 29.3422 -0.212031 30.6579 0.636092 31.3923L4.09017 34.3837C5.93821 45.3833 14.6167 54.0618 25.6163 55.9098L28.6077 59.3639C29.3422 60.212 30.6579 60.212 31.3923 59.3639L34.3837 55.9098C45.3833 54.0618 54.0618 45.3833 55.9098 34.3837L59.3639 31.3923C60.212 30.6579 60.212 29.3422 59.3639 28.6077L55.9098 25.6163C54.0618 14.6167 45.3833 5.9382 34.3837 4.09017ZM1.51548 30.3769C1.28588 30.1781 1.28588 29.8219 1.51548 29.6231L5.34027 26.3107C6.94458 15.4951 15.4951 6.94458 26.3107 5.34027L29.6231 1.51548C29.8219 1.28588 30.1781 1.28588 30.3769 1.51548L33.6893 5.34026C44.5049 6.94457 53.0554 15.4951 54.6597 26.3107L58.4845 29.6231C58.7141 29.8219 58.7141 30.1781 58.4845 30.3769L54.6597 33.6893C53.0554 44.5049 44.5049 53.0554 33.6893 54.6597L30.3769 58.4845C30.1781 58.7141 29.8219 58.7141 29.6231 58.4845L26.3107 54.6597C15.4951 53.0554 6.94458 44.5049 5.34027 33.6893L1.51548 30.3769Z" fill="#010080"/>
<path d="M71.996 50V41.6H76.1C77.156 41.6 77.948 41.8 78.476 42.2C79.012 42.6 79.28 43.128 79.28 43.784C79.28 44.224 79.172 44.608 78.956 44.936C78.74 45.256 78.444 45.504 78.068 45.68C77.692 45.856 77.26 45.944 76.772 45.944L77 45.452C77.528 45.452 77.996 45.54 78.404 45.716C78.812 45.884 79.128 46.136 79.352 46.472C79.584 46.808 79.7 47.22 79.7 47.708C79.7 48.428 79.416 48.992 78.848 49.4C78.28 49.8 77.444 50 76.34 50H71.996ZM73.928 48.536H76.196C76.7 48.536 77.08 48.456 77.336 48.296C77.6 48.128 77.732 47.864 77.732 47.504C77.732 47.152 77.6 46.892 77.336 46.724C77.08 46.548 76.7 46.46 76.196 46.46H73.784V45.044H75.86C76.332 45.044 76.692 44.964 76.94 44.804C77.196 44.636 77.324 44.384 77.324 44.048C77.324 43.72 77.196 43.476 76.94 43.316C76.692 43.148 76.332 43.064 75.86 43.064H73.928V48.536ZM84.884 50V46.568L85.328 47.744L81.632 41.6H83.696L86.528 46.316H85.34L88.184 41.6H90.092L86.396 47.744L86.828 46.568V50H84.884ZM103.664 41.6H105.608V50H103.664V41.6ZM99.8478 50H97.9038V41.6H99.8478V50ZM103.808 46.556H99.7038V44.912H103.808V46.556ZM111.483 50V46.568L111.927 47.744L108.231 41.6H110.295L113.127 46.316H111.939L114.783 41.6H116.691L112.995 47.744L113.427 46.568V50H111.483ZM119.234 50V41.6H123.05C123.962 41.6 124.766 41.776 125.462 42.128C126.158 42.472 126.702 42.956 127.094 43.58C127.486 44.204 127.682 44.944 127.682 45.8C127.682 46.648 127.486 47.388 127.094 48.02C126.702 48.644 126.158 49.132 125.462 49.484C124.766 49.828 123.962 50 123.05 50H119.234ZM121.178 48.404H122.954C123.514 48.404 123.998 48.3 124.406 48.092C124.822 47.876 125.142 47.572 125.366 47.18C125.598 46.788 125.714 46.328 125.714 45.8C125.714 45.264 125.598 44.804 125.366 44.42C125.142 44.028 124.822 43.728 124.406 43.52C123.998 43.304 123.514 43.196 122.954 43.196H121.178V48.404ZM130.948 50V41.6H134.584C135.336 41.6 135.984 41.724 136.528 41.972C137.072 42.212 137.492 42.56 137.788 43.016C138.084 43.472 138.232 44.016 138.232 44.648C138.232 45.272 138.084 45.812 137.788 46.268C137.492 46.716 137.072 47.06 136.528 47.3C135.984 47.54 135.336 47.66 134.584 47.66H132.028L132.892 46.808V50H130.948ZM136.288 50L134.188 46.952H136.264L138.388 50H136.288ZM132.892 47.024L132.028 46.112H134.476C135.076 46.112 135.524 45.984 135.82 45.728C136.116 45.464 136.264 45.104 136.264 44.648C136.264 44.184 136.116 43.824 135.82 43.568C135.524 43.312 135.076 43.184 134.476 43.184H132.028L132.892 42.26V47.024ZM140.469 50L144.213 41.6H146.133L149.889 50H147.849L144.777 42.584H145.545L142.461 50H140.469ZM142.341 48.2L142.857 46.724H147.177L147.705 48.2H142.341Z" fill="#010080"/>
<path d="M71.5247 12.9308H67C67.0457 12.5309 67.16 12.1538 67.3428 11.7996C67.5142 11.4454 67.7313 11.1369 67.9941 10.8741C68.2683 10.5999 68.5768 10.3885 68.9196 10.2399C69.2624 10.08 69.6223 10 69.9993 10H75.621V33.0521H81.9624V10H86.0758V33.0521H92.4173V10H96.5135V31.6467C96.5135 32.2523 96.4278 32.8178 96.2564 33.3434C96.085 33.869 95.8508 34.3318 95.5537 34.7317C95.2566 35.1202 94.9082 35.4287 94.5082 35.6572C94.1198 35.8857 93.697 36 93.2399 36H86.8471C86.2872 36 85.7559 35.8115 85.2531 35.4344C84.7504 35.0459 84.3333 34.526 84.002 33.8748C83.6706 34.526 83.2536 35.0459 82.7508 35.4344C82.2481 35.8115 81.7168 36 81.1569 36H74.7983C74.3527 36 73.9299 35.8857 73.53 35.6572C73.1301 35.4287 72.7816 35.1202 72.4845 34.7317C72.1874 34.3318 71.9532 33.869 71.7818 33.3434C71.6104 32.8178 71.5247 32.2523 71.5247 31.6467V12.9308Z" fill="#010080"/>
<path d="M103.883 26.3336H93.2399C93.2742 25.9565 93.3714 25.6023 93.5313 25.2709C93.6913 24.9281 93.8969 24.6368 94.1483 24.3968C94.4111 24.1455 94.7025 23.9455 95.0224 23.797C95.3538 23.6484 95.7023 23.5742 96.0679 23.5742H103.883V14.3705C103.883 13.7649 103.963 13.1993 104.123 12.6737C104.295 12.1367 104.523 11.6739 104.809 11.2854C105.106 10.8855 105.449 10.577 105.837 10.3599C106.237 10.1314 106.66 10.0171 107.105 10.0171H125.861L133.492 12.9136H107.997V23.5742H114.784V26.3336H107.997V33.0692H119.394C119.348 33.4691 119.234 33.8519 119.051 34.2175C118.88 34.5717 118.657 34.8802 118.383 35.143C118.12 35.4058 117.817 35.6172 117.475 35.7772C117.132 35.9257 116.772 36 116.395 36H107.14C106.683 36 106.254 35.8857 105.854 35.6572C105.466 35.4287 105.123 35.1202 104.826 34.7317C104.54 34.3432 104.312 33.8862 104.14 33.3606C103.969 32.835 103.883 32.2751 103.883 31.6809V26.3336Z" fill="#010080"/>
<path d="M123.97 26.3164H119.651C119.686 25.9051 119.788 25.5223 119.96 25.1681C120.131 24.8139 120.348 24.5054 120.611 24.2426C120.885 23.9798 121.194 23.7741 121.537 23.6256C121.891 23.4656 122.262 23.3856 122.651 23.3856H123.97V10.0171H136.002C136.459 10.0171 136.899 10.1314 137.322 10.3599C137.744 10.577 138.116 10.8855 138.436 11.2854C138.767 11.6739 139.03 12.1367 139.224 12.6737C139.43 13.1993 139.533 13.7649 139.533 14.3705V20.7805C139.533 21.6146 139.344 22.3801 138.967 23.0771C138.59 23.7741 138.042 24.334 137.322 24.7568C137.824 24.9396 138.259 25.1967 138.624 25.528C138.99 25.8594 139.287 26.225 139.515 26.6249C139.755 27.0248 139.933 27.4419 140.047 27.8761C140.161 28.3103 140.218 28.7216 140.218 29.1101V31.6809C140.218 32.2751 140.133 32.835 139.961 33.3606C139.79 33.8862 139.55 34.3432 139.241 34.7317C138.944 35.1202 138.596 35.4287 138.196 35.6572C137.807 35.8857 137.39 36 136.945 36H123.97V26.3164ZM135.471 23.3856V12.9479H128.032V23.3856H135.471ZM136.122 33.0692V26.3164H128.032V33.0692H136.122Z" fill="#010080"/>
<path d="M147.314 19.1694C147.314 18.5753 147.399 18.0211 147.571 17.5069C147.754 16.9813 147.994 16.5243 148.291 16.1358C148.599 15.7359 148.953 15.4217 149.353 15.1931C149.753 14.9646 150.182 14.8504 150.639 14.8504H151.41V33.0692H159.345V12.9136L130.472 12.9136C130.507 12.5137 130.61 12.1367 130.781 11.7825C130.964 11.4283 131.187 11.1198 131.449 10.857C131.724 10.5942 132.032 10.3885 132.375 10.2399C132.718 10.0914 133.083 10.0171 133.472 10.0171L160.151 10.0171C160.597 10.0171 161.019 10.1314 161.419 10.3599C161.819 10.577 162.162 10.8855 162.448 11.2854C162.745 11.6739 162.979 12.1367 163.15 12.6737C163.322 13.1993 163.407 13.7649 163.407 14.3705V31.6809C163.407 32.2751 163.322 32.835 163.15 33.3606C162.979 33.8862 162.745 34.3432 162.448 34.7317C162.162 35.1202 161.819 35.4287 161.419 35.6572C161.031 35.8857 160.614 36 160.168 36H147.331L147.314 19.1694Z" fill="#010080"/>
<path d="M166.306 14.3705C166.306 13.7649 166.391 13.1993 166.563 12.6737C166.734 12.1367 166.963 11.6739 167.248 11.2854C167.545 10.8855 167.888 10.577 168.277 10.3599C168.665 10.1314 169.082 10.0171 169.528 10.0171H179.468C179.914 10.0171 180.337 10.1314 180.737 10.3599C181.137 10.577 181.479 10.8855 181.765 11.2854C182.062 11.6739 182.296 12.1367 182.468 12.6737C182.639 13.1993 182.725 13.7649 182.725 14.3705V31.6809C182.725 32.2751 182.639 32.835 182.468 33.3606C182.296 33.8862 182.062 34.3432 181.765 34.7317C181.468 35.1202 181.119 35.4287 180.72 35.6572C180.331 35.8857 179.914 36 179.468 36H169.528C169.082 36 168.665 35.8857 168.277 35.6572C167.888 35.4287 167.545 35.1202 167.248 34.7317C166.963 34.3432 166.734 33.8862 166.563 33.3606C166.391 32.835 166.306 32.2751 166.306 31.6809V14.3705ZM178.646 33.0692V12.9136H170.402V33.0692H178.646Z" fill="#010080"/>
<path d="M185.012 14.3705C185.012 13.7649 185.098 13.1993 185.269 12.6737C185.441 12.1367 185.675 11.6739 185.972 11.2854C186.269 10.8855 186.612 10.577 187.001 10.3599C187.389 10.1314 187.806 10.0171 188.252 10.0171H197.781C198.227 10.0171 198.644 10.1314 199.032 10.3599C199.432 10.577 199.781 10.8855 200.078 11.2854C200.375 11.6739 200.609 12.1367 200.78 12.6737C200.952 13.1993 201.037 13.7649 201.037 14.3705V21.0719H196.958V12.9136H189.074V33.0692H210.423C210.377 33.4691 210.263 33.8519 210.08 34.2175C209.909 34.5717 209.686 34.8802 209.412 35.143C209.149 35.4058 208.846 35.6172 208.503 35.7772C208.161 35.9257 207.801 36 207.424 36H188.252C187.806 36 187.389 35.8857 187.001 35.6572C186.612 35.4287 186.269 35.1202 185.972 34.7317C185.675 34.3432 185.441 33.8862 185.269 33.3606C185.098 32.835 185.012 32.2751 185.012 31.6809V14.3705Z" fill="#010080"/>
<path d="M206.176 36C206.222 35.6001 206.33 35.223 206.502 34.8688C206.685 34.5146 206.907 34.2061 207.17 33.9433C207.444 33.6691 207.753 33.4577 208.096 33.3092C208.438 33.1492 208.798 33.0692 209.175 33.0692H215.465V28.9044L206.485 24.4311C205.799 24.0883 205.251 23.5684 204.839 22.8715C204.428 22.1745 204.222 21.3061 204.222 20.2663V14.3705C204.222 13.7649 204.302 13.1993 204.462 12.6737C204.634 12.1367 204.862 11.6739 205.148 11.2854C205.445 10.8855 205.788 10.577 206.176 10.3599C206.565 10.1314 206.982 10.0171 207.427 10.0171H216.905C217.351 10.0171 217.768 10.1314 218.156 10.3599C218.545 10.577 218.882 10.8855 219.168 11.2854C219.465 11.6739 219.699 12.1367 219.87 12.6737C220.042 13.1993 220.127 13.7649 220.127 14.3705V19.4436H216.031V12.9479H208.318V21.0719L217.608 25.8194C217.905 25.9679 218.173 26.1736 218.413 26.4364C218.653 26.6992 218.859 27.0077 219.03 27.3619C219.202 27.7047 219.333 28.0875 219.425 28.5102C219.516 28.933 219.562 29.3729 219.562 29.8299V31.6809C219.562 32.2751 219.476 32.835 219.305 33.3606C219.133 33.8862 218.899 34.3432 218.602 34.7317C218.316 35.1202 217.979 35.4287 217.591 35.6572C217.202 35.8857 216.785 36 216.34 36H206.176Z" fill="#010080"/>
</svg>
