<svg width="108" height="108" viewBox="0 0 108 108" fill="none" xmlns="http://www.w3.org/2000/svg">
<path d="M22.1548 57.4746C22.7955 57.8849 23.437 58.293 24.0762 58.7056C27.513 60.9259 30.9491 63.1485 34.386 65.3696C39.3811 68.5982 44.3762 71.8261 49.3721 75.054C50.5139 75.7923 51.6626 76.5207 52.796 77.272C53.0904 77.4673 53.3299 77.4696 53.6358 77.304C56.9674 75.5048 60.3043 73.7139 63.6413 71.9253C66.4077 70.4425 69.1772 68.9651 71.9459 67.4869C72.4463 67.2192 72.9489 66.9553 73.4973 66.6647C73.5019 66.9065 73.3753 67.0018 73.2814 67.1063C70.377 70.3556 67.4687 73.6002 64.5657 76.851C61.5194 80.2627 58.4799 83.6805 55.4351 87.0937C54.6235 88.0036 53.796 88.9006 52.9928 89.8182C52.7754 90.0661 52.6435 90.0539 52.4261 89.822C50.218 87.469 48.0015 85.1243 45.7873 82.7774C43.5906 80.4488 41.3932 78.1202 39.1981 75.79C36.7421 73.1822 34.2868 70.5737 31.8331 67.9644C29.9103 65.9195 27.9905 63.8708 26.0669 61.826C24.8229 60.5026 23.575 59.1823 22.3303 57.859C22.238 57.7606 22.1617 57.6477 22.0778 57.5417C22.1037 57.5196 22.1289 57.4982 22.1548 57.4761V57.4746Z" fill="white"/>
<path d="M22 50.5406C22.5522 49.9502 23.0854 49.3805 23.6193 48.8115C25.7481 46.5416 27.8753 44.2694 30.0071 42.0018C31.2001 40.7342 32.4059 39.4795 33.5988 38.2118C36.0182 35.6399 38.43 33.0611 40.8486 30.4884C42.4763 28.7578 44.1131 27.0363 45.7408 25.3056C47.9344 22.974 50.1234 20.6385 52.3117 18.3015C52.7007 17.8858 52.7197 17.8843 53.1751 18.3953C55.9545 21.5171 58.7331 24.6398 61.5148 27.7593C64.4742 31.078 67.4366 34.3943 70.3991 37.7107C71.3555 38.7816 72.3151 39.8494 73.27 40.921C73.3653 41.0278 73.5141 41.1102 73.4973 41.2902C73.3775 41.3466 73.2975 41.2642 73.2128 41.2192C67.937 38.3933 62.6612 35.5659 57.3869 32.7384C56.1551 32.0779 54.9179 31.4265 53.6983 30.7447C53.3421 30.5456 53.0851 30.5547 52.7342 30.7843C49.9793 32.5851 47.2067 34.36 44.4426 36.1463C40.3864 38.7671 36.3325 41.3916 32.277 44.0139C28.9683 46.1526 25.6596 48.2898 22.3493 50.4262C22.2593 50.4841 22.1808 50.5841 22 50.5398V50.5406Z" fill="white"/>
<path d="M72.9786 43.4418C72.6919 43.5097 72.4516 43.4129 72.2136 43.3663C68.0979 42.5655 63.983 41.7585 59.8681 40.9523C55.4656 40.0904 51.0631 39.2293 46.6621 38.3636C46.5096 38.3338 46.2663 38.3674 46.2411 38.1897C46.2167 38.0165 46.46 37.9761 46.5935 37.8899C48.7383 36.5025 50.89 35.125 53.0256 33.7239C53.378 33.4928 53.6571 33.463 54.0347 33.6591C57.3076 35.3531 60.5881 37.0311 63.8686 38.7106C66.7532 40.1873 69.6402 41.6571 72.5248 43.1329C72.6758 43.21 72.8558 43.2527 72.9794 43.4426L72.9786 43.4418Z" fill="white"/>
<path d="M72.9504 64.5924C72.8345 64.7747 72.656 64.8212 72.5035 64.899C68.6456 66.8714 64.7854 68.8385 60.9275 70.8117C58.5859 72.0092 56.2474 73.2128 53.9104 74.4209C53.6602 74.5498 53.4543 74.5689 53.2048 74.4072C50.9548 72.9489 48.6986 71.5004 46.4463 70.0459C46.3563 69.9879 46.2083 69.9422 46.2411 69.8056C46.2678 69.6966 46.4066 69.7065 46.5035 69.6874C50.5185 68.8995 54.5343 68.1124 58.5501 67.3268C61.8916 66.6731 65.2339 66.0202 68.5762 65.3673C69.9231 65.1042 71.2694 64.8403 72.6171 64.5802C72.7132 64.5619 72.8139 64.5222 72.9504 64.5924Z" fill="white"/>
<path d="M62.6802 59.492C60.5835 59.492 58.486 59.4935 56.3892 59.4897C56.2443 59.4897 56.0498 59.5561 55.9697 59.3982C55.8889 59.2372 56.062 59.1244 56.1497 59.0099C56.8377 58.1122 57.5394 57.2252 58.2175 56.3206C58.412 56.0605 58.6576 56.0589 58.9269 56.0589C61.7741 56.0589 64.6206 56.0574 67.4679 56.0551C67.8744 56.0551 68.2817 56.0551 68.6875 56.0307C68.9804 56.0124 69.2741 55.9514 69.4762 55.7066C69.8537 55.2504 69.6539 54.5487 69.0857 54.3764C68.6829 54.2543 68.2604 54.2383 67.8401 54.2375C65.4886 54.2345 63.1379 54.2375 60.7864 54.2291C59.7537 54.2253 58.7606 54.0278 57.8705 53.4763C56.8934 52.8715 56.3702 51.9867 56.313 50.8342C56.2649 49.8625 56.3748 48.9327 56.9827 48.1189C57.631 47.2517 58.5501 46.8497 59.5561 46.6079C60.286 46.4325 61.0327 46.354 61.7863 46.3532C65.4596 46.3517 69.1322 46.3494 72.8055 46.3471C72.8566 46.3471 72.9077 46.3433 72.958 46.3486C73.0541 46.3593 73.1792 46.3173 73.2296 46.4333C73.2776 46.5439 73.177 46.6201 73.1175 46.6987C72.5408 47.4576 71.968 48.2196 71.3822 48.9716C70.5379 50.057 70.9132 49.8618 69.5769 49.8671C66.9462 49.8778 64.3148 49.8671 61.6841 49.8679C61.4561 49.8679 61.2242 49.8663 61 49.9014C60.521 49.9762 60.3043 50.2187 60.2929 50.6527C60.2807 51.1088 60.4943 51.3964 60.9519 51.4963C61.3119 51.5748 61.6788 51.6084 62.0495 51.6069C64.4513 51.6008 66.8539 51.5932 69.2558 51.5947C70.1558 51.5947 71.0261 51.777 71.8483 52.1423C72.6949 52.5183 73.299 53.1407 73.5194 54.053C73.8642 55.48 73.72 56.8369 72.743 58.0047C72.1648 58.6957 71.3594 59.026 70.5135 59.2472C69.7981 59.4348 69.0651 59.5072 68.3237 59.505C66.4428 59.4989 64.5619 59.5027 62.681 59.5027V59.4912L62.6802 59.492Z" fill="white"/>
<path d="M46.5752 59.6278C44.2748 59.6278 41.9752 59.6278 39.6748 59.6278C39.5474 59.6278 39.42 59.6285 39.2942 59.6194C39.0493 59.6018 39.0119 59.4844 39.15 59.2944C39.8532 58.3288 40.5588 57.3655 41.2574 56.3968C41.4084 56.1878 41.6159 56.1856 41.8348 56.1856C43.3854 56.1856 44.9353 56.1848 46.4859 56.1802C46.5935 56.1802 46.7415 56.242 46.801 56.1215C46.8582 56.0056 46.7254 55.9194 46.6644 55.8294C45.6569 54.3481 44.6485 52.8669 43.6364 51.3895C43.3786 51.0135 43.3557 51.0165 43.0895 51.3926C41.2841 53.9439 39.4696 56.4891 37.6825 59.0534C37.3881 59.476 37.0738 59.6529 36.556 59.6377C35.3501 59.6011 34.1419 59.6262 32.9345 59.6224C32.8003 59.6224 32.6264 59.6705 32.5486 59.5286C32.4685 59.3814 32.618 59.2716 32.6942 59.164C35.3737 55.3786 38.0509 51.5916 40.7411 47.8146C41.3924 46.8993 42.2063 46.2685 43.4228 46.2517C44.7156 46.235 45.531 46.9336 46.2045 47.9015C47.4226 49.6543 48.6285 51.4154 49.842 53.172C51.2141 55.1582 52.5886 57.1428 53.9592 59.1305C54.0423 59.251 54.2025 59.3745 54.1239 59.5286C54.0454 59.6834 53.8509 59.6308 53.7037 59.6316C51.327 59.6346 48.9511 59.6339 46.5744 59.6339V59.6285L46.5752 59.6278Z" fill="white"/>
<path d="M86.7559 50.5093C86.7169 51.526 86.8161 52.8097 86.707 54.0919C86.4912 56.6249 85.1922 58.2236 82.7385 58.968C81.5494 59.3288 80.3321 59.4943 79.0919 59.4966C77.4399 59.5004 75.787 59.495 74.1349 59.4897C74.0015 59.4897 73.8245 59.5461 73.7475 59.4066C73.6651 59.2571 73.8268 59.1541 73.9076 59.0504C74.601 58.1572 75.308 57.274 75.9945 56.3747C76.1775 56.1344 76.3888 56.0559 76.6779 56.0521C77.8205 56.0391 78.9653 56.1093 80.1056 55.9705C80.4488 55.9285 80.7821 55.8545 81.1078 55.747C82.0178 55.448 82.5265 54.7989 82.5456 53.8096C82.5738 52.3231 82.5593 50.8358 82.5616 49.3484C82.5631 48.4972 82.5692 47.6453 82.5593 46.794C82.5555 46.4714 82.6798 46.3395 83.0101 46.3425C84.1031 46.3532 85.1961 46.3547 86.2891 46.3387C86.6414 46.3334 86.7612 46.4737 86.7581 46.8101C86.749 47.9542 86.7543 49.0975 86.7543 50.507L86.7559 50.5093Z" fill="white"/>
</svg>
