<svg width="68" height="68" viewBox="0 0 68 68" fill="none" xmlns="http://www.w3.org/2000/svg">
<mask id="mask0_62_4615" style="mask-type:luminance" maskUnits="userSpaceOnUse" x="2" y="2" width="64" height="64">
<path d="M14.1132 2.56604H12.8302V3.84906H14.1132V2.56604Z" fill="white"/>
<path d="M15.3962 2.56604H14.1132V3.84906H15.3962V2.56604Z" fill="white"/>
<path d="M19.2453 2.56604H17.9623V3.84906H19.2453V2.56604Z" fill="white"/>
<path d="M20.5283 2.56604H19.2452V3.84906H20.5283V2.56604Z" fill="white"/>
<path d="M21.8113 2.56604H20.5283V3.84906H21.8113V2.56604Z" fill="white"/>
<path d="M26.9434 2.56604H25.6604V3.84906H26.9434V2.56604Z" fill="white"/>
<path d="M30.7924 2.56604H29.5094V3.84906H30.7924V2.56604Z" fill="white"/>
<path d="M32.0755 2.56604H30.7925V3.84906H32.0755V2.56604Z" fill="white"/>
<path d="M35.9245 2.56604H34.6415V3.84906H35.9245V2.56604Z" fill="white"/>
<path d="M38.4905 2.56604H37.2075V3.84906H38.4905V2.56604Z" fill="white"/>
<path d="M39.7736 2.56604H38.4906V3.84906H39.7736V2.56604Z" fill="white"/>
<path d="M46.1887 2.56604H44.9056V3.84906H46.1887V2.56604Z" fill="white"/>
<path d="M48.7547 2.56604H47.4717V3.84906H48.7547V2.56604Z" fill="white"/>
<path d="M50.0378 2.56604H48.7548V3.84906H50.0378V2.56604Z" fill="white"/>
<path d="M55.1699 2.56604H53.8868V3.84906H55.1699V2.56604Z" fill="white"/>
<path d="M14.1132 3.84906H12.8302V5.13208H14.1132V3.84906Z" fill="white"/>
<path d="M16.6793 3.84906H15.3962V5.13208H16.6793V3.84906Z" fill="white"/>
<path d="M17.9622 3.84906H16.6792V5.13208H17.9622V3.84906Z" fill="white"/>
<path d="M19.2453 3.84906H17.9623V5.13208H19.2453V3.84906Z" fill="white"/>
<path d="M20.5283 3.84906H19.2452V5.13208H20.5283V3.84906Z" fill="white"/>
<path d="M24.3774 3.84906H23.0944V5.13208H24.3774V3.84906Z" fill="white"/>
<path d="M25.6603 3.84906H24.3773V5.13208H25.6603V3.84906Z" fill="white"/>
<path d="M26.9434 3.84906H25.6604V5.13208H26.9434V3.84906Z" fill="white"/>
<path d="M33.3585 3.84906H32.0754V5.13208H33.3585V3.84906Z" fill="white"/>
<path d="M35.9245 3.84906H34.6415V5.13208H35.9245V3.84906Z" fill="white"/>
<path d="M37.2076 3.84906H35.9246V5.13208H37.2076V3.84906Z" fill="white"/>
<path d="M38.4905 3.84906H37.2075V5.13208H38.4905V3.84906Z" fill="white"/>
<path d="M41.0566 3.84906H39.7736V5.13208H41.0566V3.84906Z" fill="white"/>
<path d="M44.9057 3.84906H43.6227V5.13208H44.9057V3.84906Z" fill="white"/>
<path d="M46.1887 3.84906H44.9056V5.13208H46.1887V3.84906Z" fill="white"/>
<path d="M47.4717 3.84906H46.1887V5.13208H47.4717V3.84906Z" fill="white"/>
<path d="M48.7547 3.84906H47.4717V5.13208H48.7547V3.84906Z" fill="white"/>
<path d="M52.6038 3.84906H51.3208V5.13208H52.6038V3.84906Z" fill="white"/>
<path d="M53.8868 3.84906H52.6038V5.13208H53.8868V3.84906Z" fill="white"/>
<path d="M55.1699 3.84906H53.8868V5.13208H55.1699V3.84906Z" fill="white"/>
<path d="M14.1132 5.13208H12.8302V6.4151H14.1132V5.13208Z" fill="white"/>
<path d="M17.9622 5.13208H16.6792V6.4151H17.9622V5.13208Z" fill="white"/>
<path d="M20.5283 5.13208H19.2452V6.4151H20.5283V5.13208Z" fill="white"/>
<path d="M21.8113 5.13208H20.5283V6.4151H21.8113V5.13208Z" fill="white"/>
<path d="M23.0943 5.13208H21.8113V6.4151H23.0943V5.13208Z" fill="white"/>
<path d="M24.3774 5.13208H23.0944V6.4151H24.3774V5.13208Z" fill="white"/>
<path d="M28.2264 5.13208H26.9434V6.4151H28.2264V5.13208Z" fill="white"/>
<path d="M29.5095 5.13208H28.2264V6.4151H29.5095V5.13208Z" fill="white"/>
<path d="M30.7924 5.13208H29.5094V6.4151H30.7924V5.13208Z" fill="white"/>
<path d="M32.0755 5.13208H30.7925V6.4151H32.0755V5.13208Z" fill="white"/>
<path d="M33.3585 5.13208H32.0754V6.4151H33.3585V5.13208Z" fill="white"/>
<path d="M37.2076 5.13208H35.9246V6.4151H37.2076V5.13208Z" fill="white"/>
<path d="M38.4905 5.13208H37.2075V6.4151H38.4905V5.13208Z" fill="white"/>
<path d="M41.0566 5.13208H39.7736V6.4151H41.0566V5.13208Z" fill="white"/>
<path d="M43.6226 5.13208H42.3396V6.4151H43.6226V5.13208Z" fill="white"/>
<path d="M53.8868 5.13208H52.6038V6.4151H53.8868V5.13208Z" fill="white"/>
<path d="M55.1699 5.13208H53.8868V6.4151H55.1699V5.13208Z" fill="white"/>
<path d="M15.3962 6.4151H14.1132V7.69812H15.3962V6.4151Z" fill="white"/>
<path d="M20.5283 6.4151H19.2452V7.69812H20.5283V6.4151Z" fill="white"/>
<path d="M21.8113 6.4151H20.5283V7.69812H21.8113V6.4151Z" fill="white"/>
<path d="M23.0943 6.4151H21.8113V7.69812H23.0943V6.4151Z" fill="white"/>
<path d="M24.3774 6.4151H23.0944V7.69812H24.3774V6.4151Z" fill="white"/>
<path d="M25.6603 6.4151H24.3773V7.69812H25.6603V6.4151Z" fill="white"/>
<path d="M26.9434 6.4151H25.6604V7.69812H26.9434V6.4151Z" fill="white"/>
<path d="M28.2264 6.4151H26.9434V7.69812H28.2264V6.4151Z" fill="white"/>
<path d="M34.6415 6.4151H33.3585V7.69812H34.6415V6.4151Z" fill="white"/>
<path d="M38.4905 6.4151H37.2075V7.69812H38.4905V6.4151Z" fill="white"/>
<path d="M43.6226 6.4151H42.3396V7.69812H43.6226V6.4151Z" fill="white"/>
<path d="M47.4717 6.4151H46.1887V7.69812H47.4717V6.4151Z" fill="white"/>
<path d="M48.7547 6.4151H47.4717V7.69812H48.7547V6.4151Z" fill="white"/>
<path d="M50.0378 6.4151H48.7548V7.69812H50.0378V6.4151Z" fill="white"/>
<path d="M53.8868 6.4151H52.6038V7.69812H53.8868V6.4151Z" fill="white"/>
<path d="M16.6793 7.69812H15.3962V8.98114H16.6793V7.69812Z" fill="white"/>
<path d="M19.2453 7.69812H17.9623V8.98114H19.2453V7.69812Z" fill="white"/>
<path d="M21.8113 7.69812H20.5283V8.98114H21.8113V7.69812Z" fill="white"/>
<path d="M24.3774 7.69812H23.0944V8.98114H24.3774V7.69812Z" fill="white"/>
<path d="M25.6603 7.69812H24.3773V8.98114H25.6603V7.69812Z" fill="white"/>
<path d="M26.9434 7.69812H25.6604V8.98114H26.9434V7.69812Z" fill="white"/>
<path d="M32.0755 7.69812H30.7925V8.98114H32.0755V7.69812Z" fill="white"/>
<path d="M33.3585 7.69812H32.0754V8.98114H33.3585V7.69812Z" fill="white"/>
<path d="M34.6415 7.69812H33.3585V8.98114H34.6415V7.69812Z" fill="white"/>
<path d="M35.9245 7.69812H34.6415V8.98114H35.9245V7.69812Z" fill="white"/>
<path d="M37.2076 7.69812H35.9246V8.98114H37.2076V7.69812Z" fill="white"/>
<path d="M38.4905 7.69812H37.2075V8.98114H38.4905V7.69812Z" fill="white"/>
<path d="M41.0566 7.69812H39.7736V8.98114H41.0566V7.69812Z" fill="white"/>
<path d="M43.6226 7.69812H42.3396V8.98114H43.6226V7.69812Z" fill="white"/>
<path d="M44.9057 7.69812H43.6227V8.98114H44.9057V7.69812Z" fill="white"/>
<path d="M51.3207 7.69812H50.0377V8.98114H51.3207V7.69812Z" fill="white"/>
<path d="M14.1132 8.98114H12.8302V10.2642H14.1132V8.98114Z" fill="white"/>
<path d="M15.3962 8.98114H14.1132V10.2642H15.3962V8.98114Z" fill="white"/>
<path d="M17.9622 8.98114H16.6792V10.2642H17.9622V8.98114Z" fill="white"/>
<path d="M21.8113 8.98114H20.5283V10.2642H21.8113V8.98114Z" fill="white"/>
<path d="M23.0943 8.98114H21.8113V10.2642H23.0943V8.98114Z" fill="white"/>
<path d="M25.6603 8.98114H24.3773V10.2642H25.6603V8.98114Z" fill="white"/>
<path d="M28.2264 8.98114H26.9434V10.2642H28.2264V8.98114Z" fill="white"/>
<path d="M32.0755 8.98114H30.7925V10.2642H32.0755V8.98114Z" fill="white"/>
<path d="M37.2076 8.98114H35.9246V10.2642H37.2076V8.98114Z" fill="white"/>
<path d="M41.0566 8.98114H39.7736V10.2642H41.0566V8.98114Z" fill="white"/>
<path d="M46.1887 8.98114H44.9056V10.2642H46.1887V8.98114Z" fill="white"/>
<path d="M47.4717 8.98114H46.1887V10.2642H47.4717V8.98114Z" fill="white"/>
<path d="M50.0378 8.98114H48.7548V10.2642H50.0378V8.98114Z" fill="white"/>
<path d="M51.3207 8.98114H50.0377V10.2642H51.3207V8.98114Z" fill="white"/>
<path d="M52.6038 8.98114H51.3208V10.2642H52.6038V8.98114Z" fill="white"/>
<path d="M14.1132 10.2642H12.8302V11.5472H14.1132V10.2642Z" fill="white"/>
<path d="M16.6793 10.2642H15.3962V11.5472H16.6793V10.2642Z" fill="white"/>
<path d="M19.2453 10.2642H17.9623V11.5472H19.2453V10.2642Z" fill="white"/>
<path d="M21.8113 10.2642H20.5283V11.5472H21.8113V10.2642Z" fill="white"/>
<path d="M24.3774 10.2642H23.0944V11.5472H24.3774V10.2642Z" fill="white"/>
<path d="M26.9434 10.2642H25.6604V11.5472H26.9434V10.2642Z" fill="white"/>
<path d="M29.5095 10.2642H28.2264V11.5472H29.5095V10.2642Z" fill="white"/>
<path d="M32.0755 10.2642H30.7925V11.5472H32.0755V10.2642Z" fill="white"/>
<path d="M34.6415 10.2642H33.3585V11.5472H34.6415V10.2642Z" fill="white"/>
<path d="M37.2076 10.2642H35.9246V11.5472H37.2076V10.2642Z" fill="white"/>
<path d="M39.7736 10.2642H38.4906V11.5472H39.7736V10.2642Z" fill="white"/>
<path d="M42.3397 10.2642H41.0566V11.5472H42.3397V10.2642Z" fill="white"/>
<path d="M44.9057 10.2642H43.6227V11.5472H44.9057V10.2642Z" fill="white"/>
<path d="M47.4717 10.2642H46.1887V11.5472H47.4717V10.2642Z" fill="white"/>
<path d="M50.0378 10.2642H48.7548V11.5472H50.0378V10.2642Z" fill="white"/>
<path d="M52.6038 10.2642H51.3208V11.5472H52.6038V10.2642Z" fill="white"/>
<path d="M55.1699 10.2642H53.8868V11.5472H55.1699V10.2642Z" fill="white"/>
<path d="M14.1132 11.5472H12.8302V12.8302H14.1132V11.5472Z" fill="white"/>
<path d="M16.6793 11.5472H15.3962V12.8302H16.6793V11.5472Z" fill="white"/>
<path d="M17.9622 11.5472H16.6792V12.8302H17.9622V11.5472Z" fill="white"/>
<path d="M19.2453 11.5472H17.9623V12.8302H19.2453V11.5472Z" fill="white"/>
<path d="M25.6603 11.5472H24.3773V12.8302H25.6603V11.5472Z" fill="white"/>
<path d="M26.9434 11.5472H25.6604V12.8302H26.9434V11.5472Z" fill="white"/>
<path d="M29.5095 11.5472H28.2264V12.8302H29.5095V11.5472Z" fill="white"/>
<path d="M32.0755 11.5472H30.7925V12.8302H32.0755V11.5472Z" fill="white"/>
<path d="M37.2076 11.5472H35.9246V12.8302H37.2076V11.5472Z" fill="white"/>
<path d="M39.7736 11.5472H38.4906V12.8302H39.7736V11.5472Z" fill="white"/>
<path d="M42.3397 11.5472H41.0566V12.8302H42.3397V11.5472Z" fill="white"/>
<path d="M44.9057 11.5472H43.6227V12.8302H44.9057V11.5472Z" fill="white"/>
<path d="M50.0378 11.5472H48.7548V12.8302H50.0378V11.5472Z" fill="white"/>
<path d="M6.4151 12.8302H5.13208V14.1132H6.4151V12.8302Z" fill="white"/>
<path d="M7.69806 12.8302H6.41504V14.1132H7.69806V12.8302Z" fill="white"/>
<path d="M8.98114 12.8302H7.69812V14.1132H8.98114V12.8302Z" fill="white"/>
<path d="M11.5472 12.8302H10.2642V14.1132H11.5472V12.8302Z" fill="white"/>
<path d="M14.1132 12.8302H12.8302V14.1132H14.1132V12.8302Z" fill="white"/>
<path d="M15.3962 12.8302H14.1132V14.1132H15.3962V12.8302Z" fill="white"/>
<path d="M19.2453 12.8302H17.9623V14.1132H19.2453V12.8302Z" fill="white"/>
<path d="M21.8113 12.8302H20.5283V14.1132H21.8113V12.8302Z" fill="white"/>
<path d="M28.2264 12.8302H26.9434V14.1132H28.2264V12.8302Z" fill="white"/>
<path d="M32.0755 12.8302H30.7925V14.1132H32.0755V12.8302Z" fill="white"/>
<path d="M33.3585 12.8302H32.0754V14.1132H33.3585V12.8302Z" fill="white"/>
<path d="M34.6415 12.8302H33.3585V14.1132H34.6415V12.8302Z" fill="white"/>
<path d="M35.9245 12.8302H34.6415V14.1132H35.9245V12.8302Z" fill="white"/>
<path d="M37.2076 12.8302H35.9246V14.1132H37.2076V12.8302Z" fill="white"/>
<path d="M38.4905 12.8302H37.2075V14.1132H38.4905V12.8302Z" fill="white"/>
<path d="M41.0566 12.8302H39.7736V14.1132H41.0566V12.8302Z" fill="white"/>
<path d="M44.9057 12.8302H43.6227V14.1132H44.9057V12.8302Z" fill="white"/>
<path d="M46.1887 12.8302H44.9056V14.1132H46.1887V12.8302Z" fill="white"/>
<path d="M50.0378 12.8302H48.7548V14.1132H50.0378V12.8302Z" fill="white"/>
<path d="M51.3207 12.8302H50.0377V14.1132H51.3207V12.8302Z" fill="white"/>
<path d="M53.8868 12.8302H52.6038V14.1132H53.8868V12.8302Z" fill="white"/>
<path d="M55.1699 12.8302H53.8868V14.1132H55.1699V12.8302Z" fill="white"/>
<path d="M56.4528 12.8302H55.1698V14.1132H56.4528V12.8302Z" fill="white"/>
<path d="M57.7359 12.8302H56.4529V14.1132H57.7359V12.8302Z" fill="white"/>
<path d="M59.0189 12.8302H57.7358V14.1132H59.0189V12.8302Z" fill="white"/>
<path d="M62.868 12.8302H61.585V14.1132H62.868V12.8302Z" fill="white"/>
<path d="M64.1509 12.8302H62.8679V14.1132H64.1509V12.8302Z" fill="white"/>
<path d="M65.434 12.8302H64.151V14.1132H65.434V12.8302Z" fill="white"/>
<path d="M3.84906 14.1132H2.56604V15.3962H3.84906V14.1132Z" fill="white"/>
<path d="M6.4151 14.1132H5.13208V15.3962H6.4151V14.1132Z" fill="white"/>
<path d="M7.69806 14.1132H6.41504V15.3962H7.69806V14.1132Z" fill="white"/>
<path d="M12.8301 14.1132H11.5471V15.3962H12.8301V14.1132Z" fill="white"/>
<path d="M14.1132 14.1132H12.8302V15.3962H14.1132V14.1132Z" fill="white"/>
<path d="M15.3962 14.1132H14.1132V15.3962H15.3962V14.1132Z" fill="white"/>
<path d="M16.6793 14.1132H15.3962V15.3962H16.6793V14.1132Z" fill="white"/>
<path d="M17.9622 14.1132H16.6792V15.3962H17.9622V14.1132Z" fill="white"/>
<path d="M19.2453 14.1132H17.9623V15.3962H19.2453V14.1132Z" fill="white"/>
<path d="M21.8113 14.1132H20.5283V15.3962H21.8113V14.1132Z" fill="white"/>
<path d="M26.9434 14.1132H25.6604V15.3962H26.9434V14.1132Z" fill="white"/>
<path d="M29.5095 14.1132H28.2264V15.3962H29.5095V14.1132Z" fill="white"/>
<path d="M30.7924 14.1132H29.5094V15.3962H30.7924V14.1132Z" fill="white"/>
<path d="M32.0755 14.1132H30.7925V15.3962H32.0755V14.1132Z" fill="white"/>
<path d="M33.3585 14.1132H32.0754V15.3962H33.3585V14.1132Z" fill="white"/>
<path d="M34.6415 14.1132H33.3585V15.3962H34.6415V14.1132Z" fill="white"/>
<path d="M38.4905 14.1132H37.2075V15.3962H38.4905V14.1132Z" fill="white"/>
<path d="M39.7736 14.1132H38.4906V15.3962H39.7736V14.1132Z" fill="white"/>
<path d="M41.0566 14.1132H39.7736V15.3962H41.0566V14.1132Z" fill="white"/>
<path d="M42.3397 14.1132H41.0566V15.3962H42.3397V14.1132Z" fill="white"/>
<path d="M43.6226 14.1132H42.3396V15.3962H43.6226V14.1132Z" fill="white"/>
<path d="M44.9057 14.1132H43.6227V15.3962H44.9057V14.1132Z" fill="white"/>
<path d="M50.0378 14.1132H48.7548V15.3962H50.0378V14.1132Z" fill="white"/>
<path d="M51.3207 14.1132H50.0377V15.3962H51.3207V14.1132Z" fill="white"/>
<path d="M53.8868 14.1132H52.6038V15.3962H53.8868V14.1132Z" fill="white"/>
<path d="M56.4528 14.1132H55.1698V15.3962H56.4528V14.1132Z" fill="white"/>
<path d="M57.7359 14.1132H56.4529V15.3962H57.7359V14.1132Z" fill="white"/>
<path d="M59.0189 14.1132H57.7358V15.3962H59.0189V14.1132Z" fill="white"/>
<path d="M5.13202 15.3962H3.849V16.6793H5.13202V15.3962Z" fill="white"/>
<path d="M7.69806 15.3962H6.41504V16.6793H7.69806V15.3962Z" fill="white"/>
<path d="M11.5472 15.3962H10.2642V16.6793H11.5472V15.3962Z" fill="white"/>
<path d="M16.6793 15.3962H15.3962V16.6793H16.6793V15.3962Z" fill="white"/>
<path d="M17.9622 15.3962H16.6792V16.6793H17.9622V15.3962Z" fill="white"/>
<path d="M20.5283 15.3962H19.2452V16.6793H20.5283V15.3962Z" fill="white"/>
<path d="M23.0943 15.3962H21.8113V16.6793H23.0943V15.3962Z" fill="white"/>
<path d="M24.3774 15.3962H23.0944V16.6793H24.3774V15.3962Z" fill="white"/>
<path d="M28.2264 15.3962H26.9434V16.6793H28.2264V15.3962Z" fill="white"/>
<path d="M34.6415 15.3962H33.3585V16.6793H34.6415V15.3962Z" fill="white"/>
<path d="M35.9245 15.3962H34.6415V16.6793H35.9245V15.3962Z" fill="white"/>
<path d="M38.4905 15.3962H37.2075V16.6793H38.4905V15.3962Z" fill="white"/>
<path d="M42.3397 15.3962H41.0566V16.6793H42.3397V15.3962Z" fill="white"/>
<path d="M44.9057 15.3962H43.6227V16.6793H44.9057V15.3962Z" fill="white"/>
<path d="M46.1887 15.3962H44.9056V16.6793H46.1887V15.3962Z" fill="white"/>
<path d="M50.0378 15.3962H48.7548V16.6793H50.0378V15.3962Z" fill="white"/>
<path d="M60.3019 15.3962H59.0189V16.6793H60.3019V15.3962Z" fill="white"/>
<path d="M64.1509 15.3962H62.8679V16.6793H64.1509V15.3962Z" fill="white"/>
<path d="M65.434 15.3962H64.151V16.6793H65.434V15.3962Z" fill="white"/>
<path d="M5.13202 16.6793H3.849V17.9623H5.13202V16.6793Z" fill="white"/>
<path d="M8.98114 16.6793H7.69812V17.9623H8.98114V16.6793Z" fill="white"/>
<path d="M10.2641 16.6793H8.98108V17.9623H10.2641V16.6793Z" fill="white"/>
<path d="M15.3962 16.6793H14.1132V17.9623H15.3962V16.6793Z" fill="white"/>
<path d="M16.6793 16.6793H15.3962V17.9623H16.6793V16.6793Z" fill="white"/>
<path d="M19.2453 16.6793H17.9623V17.9623H19.2453V16.6793Z" fill="white"/>
<path d="M20.5283 16.6793H19.2452V17.9623H20.5283V16.6793Z" fill="white"/>
<path d="M24.3774 16.6793H23.0944V17.9623H24.3774V16.6793Z" fill="white"/>
<path d="M25.6603 16.6793H24.3773V17.9623H25.6603V16.6793Z" fill="white"/>
<path d="M26.9434 16.6793H25.6604V17.9623H26.9434V16.6793Z" fill="white"/>
<path d="M29.5095 16.6793H28.2264V17.9623H29.5095V16.6793Z" fill="white"/>
<path d="M30.7924 16.6793H29.5094V17.9623H30.7924V16.6793Z" fill="white"/>
<path d="M33.3585 16.6793H32.0754V17.9623H33.3585V16.6793Z" fill="white"/>
<path d="M34.6415 16.6793H33.3585V17.9623H34.6415V16.6793Z" fill="white"/>
<path d="M35.9245 16.6793H34.6415V17.9623H35.9245V16.6793Z" fill="white"/>
<path d="M37.2076 16.6793H35.9246V17.9623H37.2076V16.6793Z" fill="white"/>
<path d="M38.4905 16.6793H37.2075V17.9623H38.4905V16.6793Z" fill="white"/>
<path d="M39.7736 16.6793H38.4906V17.9623H39.7736V16.6793Z" fill="white"/>
<path d="M41.0566 16.6793H39.7736V17.9623H41.0566V16.6793Z" fill="white"/>
<path d="M43.6226 16.6793H42.3396V17.9623H43.6226V16.6793Z" fill="white"/>
<path d="M46.1887 16.6793H44.9056V17.9623H46.1887V16.6793Z" fill="white"/>
<path d="M47.4717 16.6793H46.1887V17.9623H47.4717V16.6793Z" fill="white"/>
<path d="M48.7547 16.6793H47.4717V17.9623H48.7547V16.6793Z" fill="white"/>
<path d="M51.3207 16.6793H50.0377V17.9623H51.3207V16.6793Z" fill="white"/>
<path d="M60.3019 16.6793H59.0189V17.9623H60.3019V16.6793Z" fill="white"/>
<path d="M61.5849 16.6793H60.3019V17.9623H61.5849V16.6793Z" fill="white"/>
<path d="M64.1509 16.6793H62.8679V17.9623H64.1509V16.6793Z" fill="white"/>
<path d="M65.434 16.6793H64.151V17.9623H65.434V16.6793Z" fill="white"/>
<path d="M6.4151 17.9623H5.13208V19.2453H6.4151V17.9623Z" fill="white"/>
<path d="M11.5472 17.9623H10.2642V19.2453H11.5472V17.9623Z" fill="white"/>
<path d="M12.8301 17.9623H11.5471V19.2453H12.8301V17.9623Z" fill="white"/>
<path d="M14.1132 17.9623H12.8302V19.2453H14.1132V17.9623Z" fill="white"/>
<path d="M16.6793 17.9623H15.3962V19.2453H16.6793V17.9623Z" fill="white"/>
<path d="M19.2453 17.9623H17.9623V19.2453H19.2453V17.9623Z" fill="white"/>
<path d="M21.8113 17.9623H20.5283V19.2453H21.8113V17.9623Z" fill="white"/>
<path d="M23.0943 17.9623H21.8113V19.2453H23.0943V17.9623Z" fill="white"/>
<path d="M28.2264 17.9623H26.9434V19.2453H28.2264V17.9623Z" fill="white"/>
<path d="M30.7924 17.9623H29.5094V19.2453H30.7924V17.9623Z" fill="white"/>
<path d="M37.2076 17.9623H35.9246V19.2453H37.2076V17.9623Z" fill="white"/>
<path d="M38.4905 17.9623H37.2075V19.2453H38.4905V17.9623Z" fill="white"/>
<path d="M39.7736 17.9623H38.4906V19.2453H39.7736V17.9623Z" fill="white"/>
<path d="M41.0566 17.9623H39.7736V19.2453H41.0566V17.9623Z" fill="white"/>
<path d="M48.7547 17.9623H47.4717V19.2453H48.7547V17.9623Z" fill="white"/>
<path d="M50.0378 17.9623H48.7548V19.2453H50.0378V17.9623Z" fill="white"/>
<path d="M51.3207 17.9623H50.0377V19.2453H51.3207V17.9623Z" fill="white"/>
<path d="M52.6038 17.9623H51.3208V19.2453H52.6038V17.9623Z" fill="white"/>
<path d="M53.8868 17.9623H52.6038V19.2453H53.8868V17.9623Z" fill="white"/>
<path d="M55.1699 17.9623H53.8868V19.2453H55.1699V17.9623Z" fill="white"/>
<path d="M59.0189 17.9623H57.7358V19.2453H59.0189V17.9623Z" fill="white"/>
<path d="M61.5849 17.9623H60.3019V19.2453H61.5849V17.9623Z" fill="white"/>
<path d="M62.868 17.9623H61.585V19.2453H62.868V17.9623Z" fill="white"/>
<path d="M65.434 17.9623H64.151V19.2453H65.434V17.9623Z" fill="white"/>
<path d="M6.4151 19.2453H5.13208V20.5283H6.4151V19.2453Z" fill="white"/>
<path d="M7.69806 19.2453H6.41504V20.5283H7.69806V19.2453Z" fill="white"/>
<path d="M12.8301 19.2453H11.5471V20.5283H12.8301V19.2453Z" fill="white"/>
<path d="M14.1132 19.2453H12.8302V20.5283H14.1132V19.2453Z" fill="white"/>
<path d="M17.9622 19.2453H16.6792V20.5283H17.9622V19.2453Z" fill="white"/>
<path d="M20.5283 19.2453H19.2452V20.5283H20.5283V19.2453Z" fill="white"/>
<path d="M21.8113 19.2453H20.5283V20.5283H21.8113V19.2453Z" fill="white"/>
<path d="M23.0943 19.2453H21.8113V20.5283H23.0943V19.2453Z" fill="white"/>
<path d="M25.6603 19.2453H24.3773V20.5283H25.6603V19.2453Z" fill="white"/>
<path d="M37.2076 19.2453H35.9246V20.5283H37.2076V19.2453Z" fill="white"/>
<path d="M41.0566 19.2453H39.7736V20.5283H41.0566V19.2453Z" fill="white"/>
<path d="M48.7547 19.2453H47.4717V20.5283H48.7547V19.2453Z" fill="white"/>
<path d="M51.3207 19.2453H50.0377V20.5283H51.3207V19.2453Z" fill="white"/>
<path d="M53.8868 19.2453H52.6038V20.5283H53.8868V19.2453Z" fill="white"/>
<path d="M57.7359 19.2453H56.4529V20.5283H57.7359V19.2453Z" fill="white"/>
<path d="M62.868 19.2453H61.585V20.5283H62.868V19.2453Z" fill="white"/>
<path d="M5.13202 20.5283H3.849V21.8113H5.13202V20.5283Z" fill="white"/>
<path d="M11.5472 20.5283H10.2642V21.8113H11.5472V20.5283Z" fill="white"/>
<path d="M14.1132 20.5283H12.8302V21.8113H14.1132V20.5283Z" fill="white"/>
<path d="M15.3962 20.5283H14.1132V21.8113H15.3962V20.5283Z" fill="white"/>
<path d="M16.6793 20.5283H15.3962V21.8113H16.6793V20.5283Z" fill="white"/>
<path d="M19.2453 20.5283H17.9623V21.8113H19.2453V20.5283Z" fill="white"/>
<path d="M20.5283 20.5283H19.2452V21.8113H20.5283V20.5283Z" fill="white"/>
<path d="M21.8113 20.5283H20.5283V21.8113H21.8113V20.5283Z" fill="white"/>
<path d="M23.0943 20.5283H21.8113V21.8113H23.0943V20.5283Z" fill="white"/>
<path d="M24.3774 20.5283H23.0944V21.8113H24.3774V20.5283Z" fill="white"/>
<path d="M28.2264 20.5283H26.9434V21.8113H28.2264V20.5283Z" fill="white"/>
<path d="M29.5095 20.5283H28.2264V21.8113H29.5095V20.5283Z" fill="white"/>
<path d="M30.7924 20.5283H29.5094V21.8113H30.7924V20.5283Z" fill="white"/>
<path d="M32.0755 20.5283H30.7925V21.8113H32.0755V20.5283Z" fill="white"/>
<path d="M38.4905 20.5283H37.2075V21.8113H38.4905V20.5283Z" fill="white"/>
<path d="M46.1887 20.5283H44.9056V21.8113H46.1887V20.5283Z" fill="white"/>
<path d="M47.4717 20.5283H46.1887V21.8113H47.4717V20.5283Z" fill="white"/>
<path d="M48.7547 20.5283H47.4717V21.8113H48.7547V20.5283Z" fill="white"/>
<path d="M51.3207 20.5283H50.0377V21.8113H51.3207V20.5283Z" fill="white"/>
<path d="M52.6038 20.5283H51.3208V21.8113H52.6038V20.5283Z" fill="white"/>
<path d="M53.8868 20.5283H52.6038V21.8113H53.8868V20.5283Z" fill="white"/>
<path d="M55.1699 20.5283H53.8868V21.8113H55.1699V20.5283Z" fill="white"/>
<path d="M64.1509 20.5283H62.8679V21.8113H64.1509V20.5283Z" fill="white"/>
<path d="M65.434 20.5283H64.151V21.8113H65.434V20.5283Z" fill="white"/>
<path d="M3.84906 21.8113H2.56604V23.0944H3.84906V21.8113Z" fill="white"/>
<path d="M5.13202 21.8113H3.849V23.0944H5.13202V21.8113Z" fill="white"/>
<path d="M7.69806 21.8113H6.41504V23.0944H7.69806V21.8113Z" fill="white"/>
<path d="M8.98114 21.8113H7.69812V23.0944H8.98114V21.8113Z" fill="white"/>
<path d="M12.8301 21.8113H11.5471V23.0944H12.8301V21.8113Z" fill="white"/>
<path d="M14.1132 21.8113H12.8302V23.0944H14.1132V21.8113Z" fill="white"/>
<path d="M15.3962 21.8113H14.1132V23.0944H15.3962V21.8113Z" fill="white"/>
<path d="M16.6793 21.8113H15.3962V23.0944H16.6793V21.8113Z" fill="white"/>
<path d="M24.3774 21.8113H23.0944V23.0944H24.3774V21.8113Z" fill="white"/>
<path d="M25.6603 21.8113H24.3773V23.0944H25.6603V21.8113Z" fill="white"/>
<path d="M26.9434 21.8113H25.6604V23.0944H26.9434V21.8113Z" fill="white"/>
<path d="M29.5095 21.8113H28.2264V23.0944H29.5095V21.8113Z" fill="white"/>
<path d="M33.3585 21.8113H32.0754V23.0944H33.3585V21.8113Z" fill="white"/>
<path d="M34.6415 21.8113H33.3585V23.0944H34.6415V21.8113Z" fill="white"/>
<path d="M35.9245 21.8113H34.6415V23.0944H35.9245V21.8113Z" fill="white"/>
<path d="M39.7736 21.8113H38.4906V23.0944H39.7736V21.8113Z" fill="white"/>
<path d="M42.3397 21.8113H41.0566V23.0944H42.3397V21.8113Z" fill="white"/>
<path d="M43.6226 21.8113H42.3396V23.0944H43.6226V21.8113Z" fill="white"/>
<path d="M44.9057 21.8113H43.6227V23.0944H44.9057V21.8113Z" fill="white"/>
<path d="M47.4717 21.8113H46.1887V23.0944H47.4717V21.8113Z" fill="white"/>
<path d="M48.7547 21.8113H47.4717V23.0944H48.7547V21.8113Z" fill="white"/>
<path d="M51.3207 21.8113H50.0377V23.0944H51.3207V21.8113Z" fill="white"/>
<path d="M52.6038 21.8113H51.3208V23.0944H52.6038V21.8113Z" fill="white"/>
<path d="M53.8868 21.8113H52.6038V23.0944H53.8868V21.8113Z" fill="white"/>
<path d="M55.1699 21.8113H53.8868V23.0944H55.1699V21.8113Z" fill="white"/>
<path d="M57.7359 21.8113H56.4529V23.0944H57.7359V21.8113Z" fill="white"/>
<path d="M60.3019 21.8113H59.0189V23.0944H60.3019V21.8113Z" fill="white"/>
<path d="M64.1509 21.8113H62.8679V23.0944H64.1509V21.8113Z" fill="white"/>
<path d="M3.84906 23.0944H2.56604V24.3774H3.84906V23.0944Z" fill="white"/>
<path d="M8.98114 23.0944H7.69812V24.3774H8.98114V23.0944Z" fill="white"/>
<path d="M11.5472 23.0944H10.2642V24.3774H11.5472V23.0944Z" fill="white"/>
<path d="M12.8301 23.0944H11.5471V24.3774H12.8301V23.0944Z" fill="white"/>
<path d="M14.1132 23.0944H12.8302V24.3774H14.1132V23.0944Z" fill="white"/>
<path d="M17.9622 23.0944H16.6792V24.3774H17.9622V23.0944Z" fill="white"/>
<path d="M20.5283 23.0944H19.2452V24.3774H20.5283V23.0944Z" fill="white"/>
<path d="M23.0943 23.0944H21.8113V24.3774H23.0943V23.0944Z" fill="white"/>
<path d="M24.3774 23.0944H23.0944V24.3774H24.3774V23.0944Z" fill="white"/>
<path d="M25.6603 23.0944H24.3773V24.3774H25.6603V23.0944Z" fill="white"/>
<path d="M29.5095 23.0944H28.2264V24.3774H29.5095V23.0944Z" fill="white"/>
<path d="M30.7924 23.0944H29.5094V24.3774H30.7924V23.0944Z" fill="white"/>
<path d="M32.0755 23.0944H30.7925V24.3774H32.0755V23.0944Z" fill="white"/>
<path d="M33.3585 23.0944H32.0754V24.3774H33.3585V23.0944Z" fill="white"/>
<path d="M34.6415 23.0944H33.3585V24.3774H34.6415V23.0944Z" fill="white"/>
<path d="M37.2076 23.0944H35.9246V24.3774H37.2076V23.0944Z" fill="white"/>
<path d="M39.7736 23.0944H38.4906V24.3774H39.7736V23.0944Z" fill="white"/>
<path d="M42.3397 23.0944H41.0566V24.3774H42.3397V23.0944Z" fill="white"/>
<path d="M46.1887 23.0944H44.9056V24.3774H46.1887V23.0944Z" fill="white"/>
<path d="M47.4717 23.0944H46.1887V24.3774H47.4717V23.0944Z" fill="white"/>
<path d="M50.0378 23.0944H48.7548V24.3774H50.0378V23.0944Z" fill="white"/>
<path d="M51.3207 23.0944H50.0377V24.3774H51.3207V23.0944Z" fill="white"/>
<path d="M55.1699 23.0944H53.8868V24.3774H55.1699V23.0944Z" fill="white"/>
<path d="M57.7359 23.0944H56.4529V24.3774H57.7359V23.0944Z" fill="white"/>
<path d="M59.0189 23.0944H57.7358V24.3774H59.0189V23.0944Z" fill="white"/>
<path d="M62.868 23.0944H61.585V24.3774H62.868V23.0944Z" fill="white"/>
<path d="M64.1509 23.0944H62.8679V24.3774H64.1509V23.0944Z" fill="white"/>
<path d="M3.84906 24.3774H2.56604V25.6604H3.84906V24.3774Z" fill="white"/>
<path d="M5.13202 24.3774H3.849V25.6604H5.13202V24.3774Z" fill="white"/>
<path d="M6.4151 24.3774H5.13208V25.6604H6.4151V24.3774Z" fill="white"/>
<path d="M8.98114 24.3774H7.69812V25.6604H8.98114V24.3774Z" fill="white"/>
<path d="M10.2641 24.3774H8.98108V25.6604H10.2641V24.3774Z" fill="white"/>
<path d="M12.8301 24.3774H11.5471V25.6604H12.8301V24.3774Z" fill="white"/>
<path d="M15.3962 24.3774H14.1132V25.6604H15.3962V24.3774Z" fill="white"/>
<path d="M21.8113 24.3774H20.5283V25.6604H21.8113V24.3774Z" fill="white"/>
<path d="M23.0943 24.3774H21.8113V25.6604H23.0943V24.3774Z" fill="white"/>
<path d="M26.9434 24.3774H25.6604V25.6604H26.9434V24.3774Z" fill="white"/>
<path d="M28.2264 24.3774H26.9434V25.6604H28.2264V24.3774Z" fill="white"/>
<path d="M30.7924 24.3774H29.5094V25.6604H30.7924V24.3774Z" fill="white"/>
<path d="M32.0755 24.3774H30.7925V25.6604H32.0755V24.3774Z" fill="white"/>
<path d="M34.6415 24.3774H33.3585V25.6604H34.6415V24.3774Z" fill="white"/>
<path d="M37.2076 24.3774H35.9246V25.6604H37.2076V24.3774Z" fill="white"/>
<path d="M38.4905 24.3774H37.2075V25.6604H38.4905V24.3774Z" fill="white"/>
<path d="M39.7736 24.3774H38.4906V25.6604H39.7736V24.3774Z" fill="white"/>
<path d="M47.4717 24.3774H46.1887V25.6604H47.4717V24.3774Z" fill="white"/>
<path d="M48.7547 24.3774H47.4717V25.6604H48.7547V24.3774Z" fill="white"/>
<path d="M50.0378 24.3774H48.7548V25.6604H50.0378V24.3774Z" fill="white"/>
<path d="M51.3207 24.3774H50.0377V25.6604H51.3207V24.3774Z" fill="white"/>
<path d="M53.8868 24.3774H52.6038V25.6604H53.8868V24.3774Z" fill="white"/>
<path d="M57.7359 24.3774H56.4529V25.6604H57.7359V24.3774Z" fill="white"/>
<path d="M59.0189 24.3774H57.7358V25.6604H59.0189V24.3774Z" fill="white"/>
<path d="M60.3019 24.3774H59.0189V25.6604H60.3019V24.3774Z" fill="white"/>
<path d="M61.5849 24.3774H60.3019V25.6604H61.5849V24.3774Z" fill="white"/>
<path d="M62.868 24.3774H61.585V25.6604H62.868V24.3774Z" fill="white"/>
<path d="M6.4151 25.6604H5.13208V26.9434H6.4151V25.6604Z" fill="white"/>
<path d="M10.2641 25.6604H8.98108V26.9434H10.2641V25.6604Z" fill="white"/>
<path d="M11.5472 25.6604H10.2642V26.9434H11.5472V25.6604Z" fill="white"/>
<path d="M14.1132 25.6604H12.8302V26.9434H14.1132V25.6604Z" fill="white"/>
<path d="M15.3962 25.6604H14.1132V26.9434H15.3962V25.6604Z" fill="white"/>
<path d="M16.6793 25.6604H15.3962V26.9434H16.6793V25.6604Z" fill="white"/>
<path d="M20.5283 25.6604H19.2452V26.9434H20.5283V25.6604Z" fill="white"/>
<path d="M21.8113 25.6604H20.5283V26.9434H21.8113V25.6604Z" fill="white"/>
<path d="M23.0943 25.6604H21.8113V26.9434H23.0943V25.6604Z" fill="white"/>
<path d="M25.6603 25.6604H24.3773V26.9434H25.6603V25.6604Z" fill="white"/>
<path d="M26.9434 25.6604H25.6604V26.9434H26.9434V25.6604Z" fill="white"/>
<path d="M30.7924 25.6604H29.5094V26.9434H30.7924V25.6604Z" fill="white"/>
<path d="M38.4905 25.6604H37.2075V26.9434H38.4905V25.6604Z" fill="white"/>
<path d="M41.0566 25.6604H39.7736V26.9434H41.0566V25.6604Z" fill="white"/>
<path d="M42.3397 25.6604H41.0566V26.9434H42.3397V25.6604Z" fill="white"/>
<path d="M43.6226 25.6604H42.3396V26.9434H43.6226V25.6604Z" fill="white"/>
<path d="M44.9057 25.6604H43.6227V26.9434H44.9057V25.6604Z" fill="white"/>
<path d="M46.1887 25.6604H44.9056V26.9434H46.1887V25.6604Z" fill="white"/>
<path d="M52.6038 25.6604H51.3208V26.9434H52.6038V25.6604Z" fill="white"/>
<path d="M53.8868 25.6604H52.6038V26.9434H53.8868V25.6604Z" fill="white"/>
<path d="M56.4528 25.6604H55.1698V26.9434H56.4528V25.6604Z" fill="white"/>
<path d="M59.0189 25.6604H57.7358V26.9434H59.0189V25.6604Z" fill="white"/>
<path d="M60.3019 25.6604H59.0189V26.9434H60.3019V25.6604Z" fill="white"/>
<path d="M61.5849 25.6604H60.3019V26.9434H61.5849V25.6604Z" fill="white"/>
<path d="M64.1509 25.6604H62.8679V26.9434H64.1509V25.6604Z" fill="white"/>
<path d="M65.434 25.6604H64.151V26.9434H65.434V25.6604Z" fill="white"/>
<path d="M5.13202 26.9434H3.849V28.2264H5.13202V26.9434Z" fill="white"/>
<path d="M6.4151 26.9434H5.13208V28.2264H6.4151V26.9434Z" fill="white"/>
<path d="M8.98114 26.9434H7.69812V28.2264H8.98114V26.9434Z" fill="white"/>
<path d="M10.2641 26.9434H8.98108V28.2264H10.2641V26.9434Z" fill="white"/>
<path d="M14.1132 26.9434H12.8302V28.2264H14.1132V26.9434Z" fill="white"/>
<path d="M19.2453 26.9434H17.9623V28.2264H19.2453V26.9434Z" fill="white"/>
<path d="M21.8113 26.9434H20.5283V28.2264H21.8113V26.9434Z" fill="white"/>
<path d="M23.0943 26.9434H21.8113V28.2264H23.0943V26.9434Z" fill="white"/>
<path d="M28.2264 26.9434H26.9434V28.2264H28.2264V26.9434Z" fill="white"/>
<path d="M30.7924 26.9434H29.5094V28.2264H30.7924V26.9434Z" fill="white"/>
<path d="M32.0755 26.9434H30.7925V28.2264H32.0755V26.9434Z" fill="white"/>
<path d="M33.3585 26.9434H32.0754V28.2264H33.3585V26.9434Z" fill="white"/>
<path d="M34.6415 26.9434H33.3585V28.2264H34.6415V26.9434Z" fill="white"/>
<path d="M41.0566 26.9434H39.7736V28.2264H41.0566V26.9434Z" fill="white"/>
<path d="M42.3397 26.9434H41.0566V28.2264H42.3397V26.9434Z" fill="white"/>
<path d="M43.6226 26.9434H42.3396V28.2264H43.6226V26.9434Z" fill="white"/>
<path d="M46.1887 26.9434H44.9056V28.2264H46.1887V26.9434Z" fill="white"/>
<path d="M47.4717 26.9434H46.1887V28.2264H47.4717V26.9434Z" fill="white"/>
<path d="M48.7547 26.9434H47.4717V28.2264H48.7547V26.9434Z" fill="white"/>
<path d="M51.3207 26.9434H50.0377V28.2264H51.3207V26.9434Z" fill="white"/>
<path d="M52.6038 26.9434H51.3208V28.2264H52.6038V26.9434Z" fill="white"/>
<path d="M53.8868 26.9434H52.6038V28.2264H53.8868V26.9434Z" fill="white"/>
<path d="M55.1699 26.9434H53.8868V28.2264H55.1699V26.9434Z" fill="white"/>
<path d="M57.7359 26.9434H56.4529V28.2264H57.7359V26.9434Z" fill="white"/>
<path d="M59.0189 26.9434H57.7358V28.2264H59.0189V26.9434Z" fill="white"/>
<path d="M60.3019 26.9434H59.0189V28.2264H60.3019V26.9434Z" fill="white"/>
<path d="M3.84906 28.2264H2.56604V29.5095H3.84906V28.2264Z" fill="white"/>
<path d="M7.69806 28.2264H6.41504V29.5095H7.69806V28.2264Z" fill="white"/>
<path d="M8.98114 28.2264H7.69812V29.5095H8.98114V28.2264Z" fill="white"/>
<path d="M11.5472 28.2264H10.2642V29.5095H11.5472V28.2264Z" fill="white"/>
<path d="M19.2453 28.2264H17.9623V29.5095H19.2453V28.2264Z" fill="white"/>
<path d="M20.5283 28.2264H19.2452V29.5095H20.5283V28.2264Z" fill="white"/>
<path d="M21.8113 28.2264H20.5283V29.5095H21.8113V28.2264Z" fill="white"/>
<path d="M23.0943 28.2264H21.8113V29.5095H23.0943V28.2264Z" fill="white"/>
<path d="M25.6603 28.2264H24.3773V29.5095H25.6603V28.2264Z" fill="white"/>
<path d="M26.9434 28.2264H25.6604V29.5095H26.9434V28.2264Z" fill="white"/>
<path d="M28.2264 28.2264H26.9434V29.5095H28.2264V28.2264Z" fill="white"/>
<path d="M32.0755 28.2264H30.7925V29.5095H32.0755V28.2264Z" fill="white"/>
<path d="M35.9245 28.2264H34.6415V29.5095H35.9245V28.2264Z" fill="white"/>
<path d="M37.2076 28.2264H35.9246V29.5095H37.2076V28.2264Z" fill="white"/>
<path d="M41.0566 28.2264H39.7736V29.5095H41.0566V28.2264Z" fill="white"/>
<path d="M42.3397 28.2264H41.0566V29.5095H42.3397V28.2264Z" fill="white"/>
<path d="M43.6226 28.2264H42.3396V29.5095H43.6226V28.2264Z" fill="white"/>
<path d="M48.7547 28.2264H47.4717V29.5095H48.7547V28.2264Z" fill="white"/>
<path d="M50.0378 28.2264H48.7548V29.5095H50.0378V28.2264Z" fill="white"/>
<path d="M51.3207 28.2264H50.0377V29.5095H51.3207V28.2264Z" fill="white"/>
<path d="M52.6038 28.2264H51.3208V29.5095H52.6038V28.2264Z" fill="white"/>
<path d="M57.7359 28.2264H56.4529V29.5095H57.7359V28.2264Z" fill="white"/>
<path d="M59.0189 28.2264H57.7358V29.5095H59.0189V28.2264Z" fill="white"/>
<path d="M62.868 28.2264H61.585V29.5095H62.868V28.2264Z" fill="white"/>
<path d="M64.1509 28.2264H62.8679V29.5095H64.1509V28.2264Z" fill="white"/>
<path d="M5.13202 29.5095H3.849V30.7925H5.13202V29.5095Z" fill="white"/>
<path d="M6.4151 29.5095H5.13208V30.7925H6.4151V29.5095Z" fill="white"/>
<path d="M10.2641 29.5095H8.98108V30.7925H10.2641V29.5095Z" fill="white"/>
<path d="M15.3962 29.5095H14.1132V30.7925H15.3962V29.5095Z" fill="white"/>
<path d="M17.9622 29.5095H16.6792V30.7925H17.9622V29.5095Z" fill="white"/>
<path d="M19.2453 29.5095H17.9623V30.7925H19.2453V29.5095Z" fill="white"/>
<path d="M20.5283 29.5095H19.2452V30.7925H20.5283V29.5095Z" fill="white"/>
<path d="M24.3774 29.5095H23.0944V30.7925H24.3774V29.5095Z" fill="white"/>
<path d="M28.2264 29.5095H26.9434V30.7925H28.2264V29.5095Z" fill="white"/>
<path d="M29.5095 29.5095H28.2264V30.7925H29.5095V29.5095Z" fill="white"/>
<path d="M30.7924 29.5095H29.5094V30.7925H30.7924V29.5095Z" fill="white"/>
<path d="M32.0755 29.5095H30.7925V30.7925H32.0755V29.5095Z" fill="white"/>
<path d="M33.3585 29.5095H32.0754V30.7925H33.3585V29.5095Z" fill="white"/>
<path d="M37.2076 29.5095H35.9246V30.7925H37.2076V29.5095Z" fill="white"/>
<path d="M39.7736 29.5095H38.4906V30.7925H39.7736V29.5095Z" fill="white"/>
<path d="M48.7547 29.5095H47.4717V30.7925H48.7547V29.5095Z" fill="white"/>
<path d="M53.8868 29.5095H52.6038V30.7925H53.8868V29.5095Z" fill="white"/>
<path d="M56.4528 29.5095H55.1698V30.7925H56.4528V29.5095Z" fill="white"/>
<path d="M57.7359 29.5095H56.4529V30.7925H57.7359V29.5095Z" fill="white"/>
<path d="M3.84906 30.7925H2.56604V32.0755H3.84906V30.7925Z" fill="white"/>
<path d="M5.13202 30.7925H3.849V32.0755H5.13202V30.7925Z" fill="white"/>
<path d="M8.98114 30.7925H7.69812V32.0755H8.98114V30.7925Z" fill="white"/>
<path d="M10.2641 30.7925H8.98108V32.0755H10.2641V30.7925Z" fill="white"/>
<path d="M11.5472 30.7925H10.2642V32.0755H11.5472V30.7925Z" fill="white"/>
<path d="M12.8301 30.7925H11.5471V32.0755H12.8301V30.7925Z" fill="white"/>
<path d="M14.1132 30.7925H12.8302V32.0755H14.1132V30.7925Z" fill="white"/>
<path d="M15.3962 30.7925H14.1132V32.0755H15.3962V30.7925Z" fill="white"/>
<path d="M16.6793 30.7925H15.3962V32.0755H16.6793V30.7925Z" fill="white"/>
<path d="M17.9622 30.7925H16.6792V32.0755H17.9622V30.7925Z" fill="white"/>
<path d="M21.8113 30.7925H20.5283V32.0755H21.8113V30.7925Z" fill="white"/>
<path d="M24.3774 30.7925H23.0944V32.0755H24.3774V30.7925Z" fill="white"/>
<path d="M25.6603 30.7925H24.3773V32.0755H25.6603V30.7925Z" fill="white"/>
<path d="M26.9434 30.7925H25.6604V32.0755H26.9434V30.7925Z" fill="white"/>
<path d="M28.2264 30.7925H26.9434V32.0755H28.2264V30.7925Z" fill="white"/>
<path d="M29.5095 30.7925H28.2264V32.0755H29.5095V30.7925Z" fill="white"/>
<path d="M30.7924 30.7925H29.5094V32.0755H30.7924V30.7925Z" fill="white"/>
<path d="M32.0755 30.7925H30.7925V32.0755H32.0755V30.7925Z" fill="white"/>
<path d="M33.3585 30.7925H32.0754V32.0755H33.3585V30.7925Z" fill="white"/>
<path d="M34.6415 30.7925H33.3585V32.0755H34.6415V30.7925Z" fill="white"/>
<path d="M35.9245 30.7925H34.6415V32.0755H35.9245V30.7925Z" fill="white"/>
<path d="M37.2076 30.7925H35.9246V32.0755H37.2076V30.7925Z" fill="white"/>
<path d="M38.4905 30.7925H37.2075V32.0755H38.4905V30.7925Z" fill="white"/>
<path d="M47.4717 30.7925H46.1887V32.0755H47.4717V30.7925Z" fill="white"/>
<path d="M48.7547 30.7925H47.4717V32.0755H48.7547V30.7925Z" fill="white"/>
<path d="M52.6038 30.7925H51.3208V32.0755H52.6038V30.7925Z" fill="white"/>
<path d="M53.8868 30.7925H52.6038V32.0755H53.8868V30.7925Z" fill="white"/>
<path d="M55.1699 30.7925H53.8868V32.0755H55.1699V30.7925Z" fill="white"/>
<path d="M56.4528 30.7925H55.1698V32.0755H56.4528V30.7925Z" fill="white"/>
<path d="M57.7359 30.7925H56.4529V32.0755H57.7359V30.7925Z" fill="white"/>
<path d="M59.0189 30.7925H57.7358V32.0755H59.0189V30.7925Z" fill="white"/>
<path d="M60.3019 30.7925H59.0189V32.0755H60.3019V30.7925Z" fill="white"/>
<path d="M62.868 30.7925H61.585V32.0755H62.868V30.7925Z" fill="white"/>
<path d="M64.1509 30.7925H62.8679V32.0755H64.1509V30.7925Z" fill="white"/>
<path d="M65.434 30.7925H64.151V32.0755H65.434V30.7925Z" fill="white"/>
<path d="M3.84906 32.0755H2.56604V33.3585H3.84906V32.0755Z" fill="white"/>
<path d="M5.13202 32.0755H3.849V33.3585H5.13202V32.0755Z" fill="white"/>
<path d="M6.4151 32.0755H5.13208V33.3585H6.4151V32.0755Z" fill="white"/>
<path d="M7.69806 32.0755H6.41504V33.3585H7.69806V32.0755Z" fill="white"/>
<path d="M8.98114 32.0755H7.69812V33.3585H8.98114V32.0755Z" fill="white"/>
<path d="M14.1132 32.0755H12.8302V33.3585H14.1132V32.0755Z" fill="white"/>
<path d="M19.2453 32.0755H17.9623V33.3585H19.2453V32.0755Z" fill="white"/>
<path d="M21.8113 32.0755H20.5283V33.3585H21.8113V32.0755Z" fill="white"/>
<path d="M24.3774 32.0755H23.0944V33.3585H24.3774V32.0755Z" fill="white"/>
<path d="M26.9434 32.0755H25.6604V33.3585H26.9434V32.0755Z" fill="white"/>
<path d="M32.0755 32.0755H30.7925V33.3585H32.0755V32.0755Z" fill="white"/>
<path d="M37.2076 32.0755H35.9246V33.3585H37.2076V32.0755Z" fill="white"/>
<path d="M38.4905 32.0755H37.2075V33.3585H38.4905V32.0755Z" fill="white"/>
<path d="M39.7736 32.0755H38.4906V33.3585H39.7736V32.0755Z" fill="white"/>
<path d="M42.3397 32.0755H41.0566V33.3585H42.3397V32.0755Z" fill="white"/>
<path d="M43.6226 32.0755H42.3396V33.3585H43.6226V32.0755Z" fill="white"/>
<path d="M47.4717 32.0755H46.1887V33.3585H47.4717V32.0755Z" fill="white"/>
<path d="M51.3207 32.0755H50.0377V33.3585H51.3207V32.0755Z" fill="white"/>
<path d="M52.6038 32.0755H51.3208V33.3585H52.6038V32.0755Z" fill="white"/>
<path d="M55.1699 32.0755H53.8868V33.3585H55.1699V32.0755Z" fill="white"/>
<path d="M60.3019 32.0755H59.0189V33.3585H60.3019V32.0755Z" fill="white"/>
<path d="M5.13202 33.3585H3.849V34.6415H5.13202V33.3585Z" fill="white"/>
<path d="M6.4151 33.3585H5.13208V34.6415H6.4151V33.3585Z" fill="white"/>
<path d="M8.98114 33.3585H7.69812V34.6415H8.98114V33.3585Z" fill="white"/>
<path d="M11.5472 33.3585H10.2642V34.6415H11.5472V33.3585Z" fill="white"/>
<path d="M14.1132 33.3585H12.8302V34.6415H14.1132V33.3585Z" fill="white"/>
<path d="M15.3962 33.3585H14.1132V34.6415H15.3962V33.3585Z" fill="white"/>
<path d="M17.9622 33.3585H16.6792V34.6415H17.9622V33.3585Z" fill="white"/>
<path d="M19.2453 33.3585H17.9623V34.6415H19.2453V33.3585Z" fill="white"/>
<path d="M23.0943 33.3585H21.8113V34.6415H23.0943V33.3585Z" fill="white"/>
<path d="M25.6603 33.3585H24.3773V34.6415H25.6603V33.3585Z" fill="white"/>
<path d="M28.2264 33.3585H26.9434V34.6415H28.2264V33.3585Z" fill="white"/>
<path d="M30.7924 33.3585H29.5094V34.6415H30.7924V33.3585Z" fill="white"/>
<path d="M32.0755 33.3585H30.7925V34.6415H32.0755V33.3585Z" fill="white"/>
<path d="M34.6415 33.3585H33.3585V34.6415H34.6415V33.3585Z" fill="white"/>
<path d="M37.2076 33.3585H35.9246V34.6415H37.2076V33.3585Z" fill="white"/>
<path d="M41.0566 33.3585H39.7736V34.6415H41.0566V33.3585Z" fill="white"/>
<path d="M42.3397 33.3585H41.0566V34.6415H42.3397V33.3585Z" fill="white"/>
<path d="M47.4717 33.3585H46.1887V34.6415H47.4717V33.3585Z" fill="white"/>
<path d="M48.7547 33.3585H47.4717V34.6415H48.7547V33.3585Z" fill="white"/>
<path d="M50.0378 33.3585H48.7548V34.6415H50.0378V33.3585Z" fill="white"/>
<path d="M52.6038 33.3585H51.3208V34.6415H52.6038V33.3585Z" fill="white"/>
<path d="M55.1699 33.3585H53.8868V34.6415H55.1699V33.3585Z" fill="white"/>
<path d="M57.7359 33.3585H56.4529V34.6415H57.7359V33.3585Z" fill="white"/>
<path d="M60.3019 33.3585H59.0189V34.6415H60.3019V33.3585Z" fill="white"/>
<path d="M61.5849 33.3585H60.3019V34.6415H61.5849V33.3585Z" fill="white"/>
<path d="M62.868 33.3585H61.585V34.6415H62.868V33.3585Z" fill="white"/>
<path d="M64.1509 33.3585H62.8679V34.6415H64.1509V33.3585Z" fill="white"/>
<path d="M65.434 33.3585H64.151V34.6415H65.434V33.3585Z" fill="white"/>
<path d="M3.84906 34.6415H2.56604V35.9246H3.84906V34.6415Z" fill="white"/>
<path d="M5.13202 34.6415H3.849V35.9246H5.13202V34.6415Z" fill="white"/>
<path d="M6.4151 34.6415H5.13208V35.9246H6.4151V34.6415Z" fill="white"/>
<path d="M7.69806 34.6415H6.41504V35.9246H7.69806V34.6415Z" fill="white"/>
<path d="M8.98114 34.6415H7.69812V35.9246H8.98114V34.6415Z" fill="white"/>
<path d="M14.1132 34.6415H12.8302V35.9246H14.1132V34.6415Z" fill="white"/>
<path d="M16.6793 34.6415H15.3962V35.9246H16.6793V34.6415Z" fill="white"/>
<path d="M19.2453 34.6415H17.9623V35.9246H19.2453V34.6415Z" fill="white"/>
<path d="M24.3774 34.6415H23.0944V35.9246H24.3774V34.6415Z" fill="white"/>
<path d="M28.2264 34.6415H26.9434V35.9246H28.2264V34.6415Z" fill="white"/>
<path d="M29.5095 34.6415H28.2264V35.9246H29.5095V34.6415Z" fill="white"/>
<path d="M30.7924 34.6415H29.5094V35.9246H30.7924V34.6415Z" fill="white"/>
<path d="M32.0755 34.6415H30.7925V35.9246H32.0755V34.6415Z" fill="white"/>
<path d="M37.2076 34.6415H35.9246V35.9246H37.2076V34.6415Z" fill="white"/>
<path d="M38.4905 34.6415H37.2075V35.9246H38.4905V34.6415Z" fill="white"/>
<path d="M42.3397 34.6415H41.0566V35.9246H42.3397V34.6415Z" fill="white"/>
<path d="M43.6226 34.6415H42.3396V35.9246H43.6226V34.6415Z" fill="white"/>
<path d="M48.7547 34.6415H47.4717V35.9246H48.7547V34.6415Z" fill="white"/>
<path d="M51.3207 34.6415H50.0377V35.9246H51.3207V34.6415Z" fill="white"/>
<path d="M53.8868 34.6415H52.6038V35.9246H53.8868V34.6415Z" fill="white"/>
<path d="M55.1699 34.6415H53.8868V35.9246H55.1699V34.6415Z" fill="white"/>
<path d="M60.3019 34.6415H59.0189V35.9246H60.3019V34.6415Z" fill="white"/>
<path d="M3.84906 35.9246H2.56604V37.2076H3.84906V35.9246Z" fill="white"/>
<path d="M6.4151 35.9246H5.13208V37.2076H6.4151V35.9246Z" fill="white"/>
<path d="M8.98114 35.9246H7.69812V37.2076H8.98114V35.9246Z" fill="white"/>
<path d="M10.2641 35.9246H8.98108V37.2076H10.2641V35.9246Z" fill="white"/>
<path d="M11.5472 35.9246H10.2642V37.2076H11.5472V35.9246Z" fill="white"/>
<path d="M12.8301 35.9246H11.5471V37.2076H12.8301V35.9246Z" fill="white"/>
<path d="M14.1132 35.9246H12.8302V37.2076H14.1132V35.9246Z" fill="white"/>
<path d="M19.2453 35.9246H17.9623V37.2076H19.2453V35.9246Z" fill="white"/>
<path d="M20.5283 35.9246H19.2452V37.2076H20.5283V35.9246Z" fill="white"/>
<path d="M25.6603 35.9246H24.3773V37.2076H25.6603V35.9246Z" fill="white"/>
<path d="M28.2264 35.9246H26.9434V37.2076H28.2264V35.9246Z" fill="white"/>
<path d="M30.7924 35.9246H29.5094V37.2076H30.7924V35.9246Z" fill="white"/>
<path d="M32.0755 35.9246H30.7925V37.2076H32.0755V35.9246Z" fill="white"/>
<path d="M33.3585 35.9246H32.0754V37.2076H33.3585V35.9246Z" fill="white"/>
<path d="M34.6415 35.9246H33.3585V37.2076H34.6415V35.9246Z" fill="white"/>
<path d="M35.9245 35.9246H34.6415V37.2076H35.9245V35.9246Z" fill="white"/>
<path d="M37.2076 35.9246H35.9246V37.2076H37.2076V35.9246Z" fill="white"/>
<path d="M38.4905 35.9246H37.2075V37.2076H38.4905V35.9246Z" fill="white"/>
<path d="M41.0566 35.9246H39.7736V37.2076H41.0566V35.9246Z" fill="white"/>
<path d="M47.4717 35.9246H46.1887V37.2076H47.4717V35.9246Z" fill="white"/>
<path d="M48.7547 35.9246H47.4717V37.2076H48.7547V35.9246Z" fill="white"/>
<path d="M52.6038 35.9246H51.3208V37.2076H52.6038V35.9246Z" fill="white"/>
<path d="M55.1699 35.9246H53.8868V37.2076H55.1699V35.9246Z" fill="white"/>
<path d="M56.4528 35.9246H55.1698V37.2076H56.4528V35.9246Z" fill="white"/>
<path d="M57.7359 35.9246H56.4529V37.2076H57.7359V35.9246Z" fill="white"/>
<path d="M59.0189 35.9246H57.7358V37.2076H59.0189V35.9246Z" fill="white"/>
<path d="M60.3019 35.9246H59.0189V37.2076H60.3019V35.9246Z" fill="white"/>
<path d="M64.1509 35.9246H62.8679V37.2076H64.1509V35.9246Z" fill="white"/>
<path d="M65.434 35.9246H64.151V37.2076H65.434V35.9246Z" fill="white"/>
<path d="M3.84906 37.2075H2.56604V38.4905H3.84906V37.2075Z" fill="white"/>
<path d="M5.13202 37.2075H3.849V38.4905H5.13202V37.2075Z" fill="white"/>
<path d="M8.98114 37.2075H7.69812V38.4905H8.98114V37.2075Z" fill="white"/>
<path d="M12.8301 37.2075H11.5471V38.4905H12.8301V37.2075Z" fill="white"/>
<path d="M15.3962 37.2075H14.1132V38.4905H15.3962V37.2075Z" fill="white"/>
<path d="M17.9622 37.2075H16.6792V38.4905H17.9622V37.2075Z" fill="white"/>
<path d="M19.2453 37.2075H17.9623V38.4905H19.2453V37.2075Z" fill="white"/>
<path d="M20.5283 37.2075H19.2452V38.4905H20.5283V37.2075Z" fill="white"/>
<path d="M21.8113 37.2075H20.5283V38.4905H21.8113V37.2075Z" fill="white"/>
<path d="M28.2264 37.2075H26.9434V38.4905H28.2264V37.2075Z" fill="white"/>
<path d="M29.5095 37.2075H28.2264V38.4905H29.5095V37.2075Z" fill="white"/>
<path d="M33.3585 37.2075H32.0754V38.4905H33.3585V37.2075Z" fill="white"/>
<path d="M34.6415 37.2075H33.3585V38.4905H34.6415V37.2075Z" fill="white"/>
<path d="M37.2076 37.2075H35.9246V38.4905H37.2076V37.2075Z" fill="white"/>
<path d="M38.4905 37.2075H37.2075V38.4905H38.4905V37.2075Z" fill="white"/>
<path d="M42.3397 37.2075H41.0566V38.4905H42.3397V37.2075Z" fill="white"/>
<path d="M43.6226 37.2075H42.3396V38.4905H43.6226V37.2075Z" fill="white"/>
<path d="M47.4717 37.2075H46.1887V38.4905H47.4717V37.2075Z" fill="white"/>
<path d="M48.7547 37.2075H47.4717V38.4905H48.7547V37.2075Z" fill="white"/>
<path d="M51.3207 37.2075H50.0377V38.4905H51.3207V37.2075Z" fill="white"/>
<path d="M52.6038 37.2075H51.3208V38.4905H52.6038V37.2075Z" fill="white"/>
<path d="M56.4528 37.2075H55.1698V38.4905H56.4528V37.2075Z" fill="white"/>
<path d="M59.0189 37.2075H57.7358V38.4905H59.0189V37.2075Z" fill="white"/>
<path d="M3.84906 38.4905H2.56604V39.7736H3.84906V38.4905Z" fill="white"/>
<path d="M6.4151 38.4905H5.13208V39.7736H6.4151V38.4905Z" fill="white"/>
<path d="M7.69806 38.4905H6.41504V39.7736H7.69806V38.4905Z" fill="white"/>
<path d="M8.98114 38.4905H7.69812V39.7736H8.98114V38.4905Z" fill="white"/>
<path d="M11.5472 38.4905H10.2642V39.7736H11.5472V38.4905Z" fill="white"/>
<path d="M12.8301 38.4905H11.5471V39.7736H12.8301V38.4905Z" fill="white"/>
<path d="M14.1132 38.4905H12.8302V39.7736H14.1132V38.4905Z" fill="white"/>
<path d="M17.9622 38.4905H16.6792V39.7736H17.9622V38.4905Z" fill="white"/>
<path d="M19.2453 38.4905H17.9623V39.7736H19.2453V38.4905Z" fill="white"/>
<path d="M20.5283 38.4905H19.2452V39.7736H20.5283V38.4905Z" fill="white"/>
<path d="M21.8113 38.4905H20.5283V39.7736H21.8113V38.4905Z" fill="white"/>
<path d="M25.6603 38.4905H24.3773V39.7736H25.6603V38.4905Z" fill="white"/>
<path d="M26.9434 38.4905H25.6604V39.7736H26.9434V38.4905Z" fill="white"/>
<path d="M28.2264 38.4905H26.9434V39.7736H28.2264V38.4905Z" fill="white"/>
<path d="M29.5095 38.4905H28.2264V39.7736H29.5095V38.4905Z" fill="white"/>
<path d="M37.2076 38.4905H35.9246V39.7736H37.2076V38.4905Z" fill="white"/>
<path d="M39.7736 38.4905H38.4906V39.7736H39.7736V38.4905Z" fill="white"/>
<path d="M42.3397 38.4905H41.0566V39.7736H42.3397V38.4905Z" fill="white"/>
<path d="M43.6226 38.4905H42.3396V39.7736H43.6226V38.4905Z" fill="white"/>
<path d="M46.1887 38.4905H44.9056V39.7736H46.1887V38.4905Z" fill="white"/>
<path d="M47.4717 38.4905H46.1887V39.7736H47.4717V38.4905Z" fill="white"/>
<path d="M48.7547 38.4905H47.4717V39.7736H48.7547V38.4905Z" fill="white"/>
<path d="M50.0378 38.4905H48.7548V39.7736H50.0378V38.4905Z" fill="white"/>
<path d="M51.3207 38.4905H50.0377V39.7736H51.3207V38.4905Z" fill="white"/>
<path d="M53.8868 38.4905H52.6038V39.7736H53.8868V38.4905Z" fill="white"/>
<path d="M55.1699 38.4905H53.8868V39.7736H55.1699V38.4905Z" fill="white"/>
<path d="M56.4528 38.4905H55.1698V39.7736H56.4528V38.4905Z" fill="white"/>
<path d="M57.7359 38.4905H56.4529V39.7736H57.7359V38.4905Z" fill="white"/>
<path d="M60.3019 38.4905H59.0189V39.7736H60.3019V38.4905Z" fill="white"/>
<path d="M62.868 38.4905H61.585V39.7736H62.868V38.4905Z" fill="white"/>
<path d="M3.84906 39.7736H2.56604V41.0566H3.84906V39.7736Z" fill="white"/>
<path d="M12.8301 39.7736H11.5471V41.0566H12.8301V39.7736Z" fill="white"/>
<path d="M16.6793 39.7736H15.3962V41.0566H16.6793V39.7736Z" fill="white"/>
<path d="M17.9622 39.7736H16.6792V41.0566H17.9622V39.7736Z" fill="white"/>
<path d="M19.2453 39.7736H17.9623V41.0566H19.2453V39.7736Z" fill="white"/>
<path d="M20.5283 39.7736H19.2452V41.0566H20.5283V39.7736Z" fill="white"/>
<path d="M24.3774 39.7736H23.0944V41.0566H24.3774V39.7736Z" fill="white"/>
<path d="M26.9434 39.7736H25.6604V41.0566H26.9434V39.7736Z" fill="white"/>
<path d="M28.2264 39.7736H26.9434V41.0566H28.2264V39.7736Z" fill="white"/>
<path d="M29.5095 39.7736H28.2264V41.0566H29.5095V39.7736Z" fill="white"/>
<path d="M30.7924 39.7736H29.5094V41.0566H30.7924V39.7736Z" fill="white"/>
<path d="M32.0755 39.7736H30.7925V41.0566H32.0755V39.7736Z" fill="white"/>
<path d="M34.6415 39.7736H33.3585V41.0566H34.6415V39.7736Z" fill="white"/>
<path d="M35.9245 39.7736H34.6415V41.0566H35.9245V39.7736Z" fill="white"/>
<path d="M37.2076 39.7736H35.9246V41.0566H37.2076V39.7736Z" fill="white"/>
<path d="M38.4905 39.7736H37.2075V41.0566H38.4905V39.7736Z" fill="white"/>
<path d="M39.7736 39.7736H38.4906V41.0566H39.7736V39.7736Z" fill="white"/>
<path d="M41.0566 39.7736H39.7736V41.0566H41.0566V39.7736Z" fill="white"/>
<path d="M42.3397 39.7736H41.0566V41.0566H42.3397V39.7736Z" fill="white"/>
<path d="M50.0378 39.7736H48.7548V41.0566H50.0378V39.7736Z" fill="white"/>
<path d="M51.3207 39.7736H50.0377V41.0566H51.3207V39.7736Z" fill="white"/>
<path d="M53.8868 39.7736H52.6038V41.0566H53.8868V39.7736Z" fill="white"/>
<path d="M55.1699 39.7736H53.8868V41.0566H55.1699V39.7736Z" fill="white"/>
<path d="M56.4528 39.7736H55.1698V41.0566H56.4528V39.7736Z" fill="white"/>
<path d="M64.1509 39.7736H62.8679V41.0566H64.1509V39.7736Z" fill="white"/>
<path d="M65.434 39.7736H64.151V41.0566H65.434V39.7736Z" fill="white"/>
<path d="M3.84906 41.0566H2.56604V42.3396H3.84906V41.0566Z" fill="white"/>
<path d="M10.2641 41.0566H8.98108V42.3396H10.2641V41.0566Z" fill="white"/>
<path d="M11.5472 41.0566H10.2642V42.3396H11.5472V41.0566Z" fill="white"/>
<path d="M12.8301 41.0566H11.5471V42.3396H12.8301V41.0566Z" fill="white"/>
<path d="M14.1132 41.0566H12.8302V42.3396H14.1132V41.0566Z" fill="white"/>
<path d="M16.6793 41.0566H15.3962V42.3396H16.6793V41.0566Z" fill="white"/>
<path d="M17.9622 41.0566H16.6792V42.3396H17.9622V41.0566Z" fill="white"/>
<path d="M21.8113 41.0566H20.5283V42.3396H21.8113V41.0566Z" fill="white"/>
<path d="M24.3774 41.0566H23.0944V42.3396H24.3774V41.0566Z" fill="white"/>
<path d="M25.6603 41.0566H24.3773V42.3396H25.6603V41.0566Z" fill="white"/>
<path d="M26.9434 41.0566H25.6604V42.3396H26.9434V41.0566Z" fill="white"/>
<path d="M28.2264 41.0566H26.9434V42.3396H28.2264V41.0566Z" fill="white"/>
<path d="M29.5095 41.0566H28.2264V42.3396H29.5095V41.0566Z" fill="white"/>
<path d="M32.0755 41.0566H30.7925V42.3396H32.0755V41.0566Z" fill="white"/>
<path d="M34.6415 41.0566H33.3585V42.3396H34.6415V41.0566Z" fill="white"/>
<path d="M35.9245 41.0566H34.6415V42.3396H35.9245V41.0566Z" fill="white"/>
<path d="M41.0566 41.0566H39.7736V42.3396H41.0566V41.0566Z" fill="white"/>
<path d="M46.1887 41.0566H44.9056V42.3396H46.1887V41.0566Z" fill="white"/>
<path d="M47.4717 41.0566H46.1887V42.3396H47.4717V41.0566Z" fill="white"/>
<path d="M48.7547 41.0566H47.4717V42.3396H48.7547V41.0566Z" fill="white"/>
<path d="M50.0378 41.0566H48.7548V42.3396H50.0378V41.0566Z" fill="white"/>
<path d="M52.6038 41.0566H51.3208V42.3396H52.6038V41.0566Z" fill="white"/>
<path d="M55.1699 41.0566H53.8868V42.3396H55.1699V41.0566Z" fill="white"/>
<path d="M56.4528 41.0566H55.1698V42.3396H56.4528V41.0566Z" fill="white"/>
<path d="M57.7359 41.0566H56.4529V42.3396H57.7359V41.0566Z" fill="white"/>
<path d="M61.5849 41.0566H60.3019V42.3396H61.5849V41.0566Z" fill="white"/>
<path d="M64.1509 41.0566H62.8679V42.3396H64.1509V41.0566Z" fill="white"/>
<path d="M65.434 41.0566H64.151V42.3396H65.434V41.0566Z" fill="white"/>
<path d="M6.4151 42.3396H5.13208V43.6226H6.4151V42.3396Z" fill="white"/>
<path d="M8.98114 42.3396H7.69812V43.6226H8.98114V42.3396Z" fill="white"/>
<path d="M12.8301 42.3396H11.5471V43.6226H12.8301V42.3396Z" fill="white"/>
<path d="M15.3962 42.3396H14.1132V43.6226H15.3962V42.3396Z" fill="white"/>
<path d="M20.5283 42.3396H19.2452V43.6226H20.5283V42.3396Z" fill="white"/>
<path d="M24.3774 42.3396H23.0944V43.6226H24.3774V42.3396Z" fill="white"/>
<path d="M28.2264 42.3396H26.9434V43.6226H28.2264V42.3396Z" fill="white"/>
<path d="M29.5095 42.3396H28.2264V43.6226H29.5095V42.3396Z" fill="white"/>
<path d="M30.7924 42.3396H29.5094V43.6226H30.7924V42.3396Z" fill="white"/>
<path d="M32.0755 42.3396H30.7925V43.6226H32.0755V42.3396Z" fill="white"/>
<path d="M33.3585 42.3396H32.0754V43.6226H33.3585V42.3396Z" fill="white"/>
<path d="M34.6415 42.3396H33.3585V43.6226H34.6415V42.3396Z" fill="white"/>
<path d="M37.2076 42.3396H35.9246V43.6226H37.2076V42.3396Z" fill="white"/>
<path d="M42.3397 42.3396H41.0566V43.6226H42.3397V42.3396Z" fill="white"/>
<path d="M47.4717 42.3396H46.1887V43.6226H47.4717V42.3396Z" fill="white"/>
<path d="M48.7547 42.3396H47.4717V43.6226H48.7547V42.3396Z" fill="white"/>
<path d="M51.3207 42.3396H50.0377V43.6226H51.3207V42.3396Z" fill="white"/>
<path d="M52.6038 42.3396H51.3208V43.6226H52.6038V42.3396Z" fill="white"/>
<path d="M55.1699 42.3396H53.8868V43.6226H55.1699V42.3396Z" fill="white"/>
<path d="M61.5849 42.3396H60.3019V43.6226H61.5849V42.3396Z" fill="white"/>
<path d="M65.434 42.3396H64.151V43.6226H65.434V42.3396Z" fill="white"/>
<path d="M5.13202 43.6226H3.849V44.9056H5.13202V43.6226Z" fill="white"/>
<path d="M6.4151 43.6226H5.13208V44.9056H6.4151V43.6226Z" fill="white"/>
<path d="M8.98114 43.6226H7.69812V44.9056H8.98114V43.6226Z" fill="white"/>
<path d="M11.5472 43.6226H10.2642V44.9056H11.5472V43.6226Z" fill="white"/>
<path d="M12.8301 43.6226H11.5471V44.9056H12.8301V43.6226Z" fill="white"/>
<path d="M15.3962 43.6226H14.1132V44.9056H15.3962V43.6226Z" fill="white"/>
<path d="M20.5283 43.6226H19.2452V44.9056H20.5283V43.6226Z" fill="white"/>
<path d="M21.8113 43.6226H20.5283V44.9056H21.8113V43.6226Z" fill="white"/>
<path d="M23.0943 43.6226H21.8113V44.9056H23.0943V43.6226Z" fill="white"/>
<path d="M24.3774 43.6226H23.0944V44.9056H24.3774V43.6226Z" fill="white"/>
<path d="M25.6603 43.6226H24.3773V44.9056H25.6603V43.6226Z" fill="white"/>
<path d="M26.9434 43.6226H25.6604V44.9056H26.9434V43.6226Z" fill="white"/>
<path d="M28.2264 43.6226H26.9434V44.9056H28.2264V43.6226Z" fill="white"/>
<path d="M29.5095 43.6226H28.2264V44.9056H29.5095V43.6226Z" fill="white"/>
<path d="M33.3585 43.6226H32.0754V44.9056H33.3585V43.6226Z" fill="white"/>
<path d="M37.2076 43.6226H35.9246V44.9056H37.2076V43.6226Z" fill="white"/>
<path d="M38.4905 43.6226H37.2075V44.9056H38.4905V43.6226Z" fill="white"/>
<path d="M43.6226 43.6226H42.3396V44.9056H43.6226V43.6226Z" fill="white"/>
<path d="M44.9057 43.6226H43.6227V44.9056H44.9057V43.6226Z" fill="white"/>
<path d="M50.0378 43.6226H48.7548V44.9056H50.0378V43.6226Z" fill="white"/>
<path d="M51.3207 43.6226H50.0377V44.9056H51.3207V43.6226Z" fill="white"/>
<path d="M52.6038 43.6226H51.3208V44.9056H52.6038V43.6226Z" fill="white"/>
<path d="M53.8868 43.6226H52.6038V44.9056H53.8868V43.6226Z" fill="white"/>
<path d="M56.4528 43.6226H55.1698V44.9056H56.4528V43.6226Z" fill="white"/>
<path d="M61.5849 43.6226H60.3019V44.9056H61.5849V43.6226Z" fill="white"/>
<path d="M62.868 43.6226H61.585V44.9056H62.868V43.6226Z" fill="white"/>
<path d="M65.434 43.6226H64.151V44.9056H65.434V43.6226Z" fill="white"/>
<path d="M6.4151 44.9056H5.13208V46.1887H6.4151V44.9056Z" fill="white"/>
<path d="M12.8301 44.9056H11.5471V46.1887H12.8301V44.9056Z" fill="white"/>
<path d="M15.3962 44.9056H14.1132V46.1887H15.3962V44.9056Z" fill="white"/>
<path d="M16.6793 44.9056H15.3962V46.1887H16.6793V44.9056Z" fill="white"/>
<path d="M20.5283 44.9056H19.2452V46.1887H20.5283V44.9056Z" fill="white"/>
<path d="M21.8113 44.9056H20.5283V46.1887H21.8113V44.9056Z" fill="white"/>
<path d="M23.0943 44.9056H21.8113V46.1887H23.0943V44.9056Z" fill="white"/>
<path d="M28.2264 44.9056H26.9434V46.1887H28.2264V44.9056Z" fill="white"/>
<path d="M29.5095 44.9056H28.2264V46.1887H29.5095V44.9056Z" fill="white"/>
<path d="M32.0755 44.9056H30.7925V46.1887H32.0755V44.9056Z" fill="white"/>
<path d="M33.3585 44.9056H32.0754V46.1887H33.3585V44.9056Z" fill="white"/>
<path d="M34.6415 44.9056H33.3585V46.1887H34.6415V44.9056Z" fill="white"/>
<path d="M35.9245 44.9056H34.6415V46.1887H35.9245V44.9056Z" fill="white"/>
<path d="M38.4905 44.9056H37.2075V46.1887H38.4905V44.9056Z" fill="white"/>
<path d="M39.7736 44.9056H38.4906V46.1887H39.7736V44.9056Z" fill="white"/>
<path d="M44.9057 44.9056H43.6227V46.1887H44.9057V44.9056Z" fill="white"/>
<path d="M51.3207 44.9056H50.0377V46.1887H51.3207V44.9056Z" fill="white"/>
<path d="M56.4528 44.9056H55.1698V46.1887H56.4528V44.9056Z" fill="white"/>
<path d="M59.0189 44.9056H57.7358V46.1887H59.0189V44.9056Z" fill="white"/>
<path d="M61.5849 44.9056H60.3019V46.1887H61.5849V44.9056Z" fill="white"/>
<path d="M62.868 44.9056H61.585V46.1887H62.868V44.9056Z" fill="white"/>
<path d="M3.84906 46.1887H2.56604V47.4717H3.84906V46.1887Z" fill="white"/>
<path d="M6.4151 46.1887H5.13208V47.4717H6.4151V46.1887Z" fill="white"/>
<path d="M7.69806 46.1887H6.41504V47.4717H7.69806V46.1887Z" fill="white"/>
<path d="M11.5472 46.1887H10.2642V47.4717H11.5472V46.1887Z" fill="white"/>
<path d="M16.6793 46.1887H15.3962V47.4717H16.6793V46.1887Z" fill="white"/>
<path d="M19.2453 46.1887H17.9623V47.4717H19.2453V46.1887Z" fill="white"/>
<path d="M20.5283 46.1887H19.2452V47.4717H20.5283V46.1887Z" fill="white"/>
<path d="M23.0943 46.1887H21.8113V47.4717H23.0943V46.1887Z" fill="white"/>
<path d="M24.3774 46.1887H23.0944V47.4717H24.3774V46.1887Z" fill="white"/>
<path d="M30.7924 46.1887H29.5094V47.4717H30.7924V46.1887Z" fill="white"/>
<path d="M33.3585 46.1887H32.0754V47.4717H33.3585V46.1887Z" fill="white"/>
<path d="M35.9245 46.1887H34.6415V47.4717H35.9245V46.1887Z" fill="white"/>
<path d="M37.2076 46.1887H35.9246V47.4717H37.2076V46.1887Z" fill="white"/>
<path d="M39.7736 46.1887H38.4906V47.4717H39.7736V46.1887Z" fill="white"/>
<path d="M42.3397 46.1887H41.0566V47.4717H42.3397V46.1887Z" fill="white"/>
<path d="M43.6226 46.1887H42.3396V47.4717H43.6226V46.1887Z" fill="white"/>
<path d="M44.9057 46.1887H43.6227V47.4717H44.9057V46.1887Z" fill="white"/>
<path d="M46.1887 46.1887H44.9056V47.4717H46.1887V46.1887Z" fill="white"/>
<path d="M47.4717 46.1887H46.1887V47.4717H47.4717V46.1887Z" fill="white"/>
<path d="M50.0378 46.1887H48.7548V47.4717H50.0378V46.1887Z" fill="white"/>
<path d="M53.8868 46.1887H52.6038V47.4717H53.8868V46.1887Z" fill="white"/>
<path d="M56.4528 46.1887H55.1698V47.4717H56.4528V46.1887Z" fill="white"/>
<path d="M57.7359 46.1887H56.4529V47.4717H57.7359V46.1887Z" fill="white"/>
<path d="M60.3019 46.1887H59.0189V47.4717H60.3019V46.1887Z" fill="white"/>
<path d="M61.5849 46.1887H60.3019V47.4717H61.5849V46.1887Z" fill="white"/>
<path d="M62.868 46.1887H61.585V47.4717H62.868V46.1887Z" fill="white"/>
<path d="M64.1509 46.1887H62.8679V47.4717H64.1509V46.1887Z" fill="white"/>
<path d="M65.434 46.1887H64.151V47.4717H65.434V46.1887Z" fill="white"/>
<path d="M7.69806 47.4717H6.41504V48.7547H7.69806V47.4717Z" fill="white"/>
<path d="M8.98114 47.4717H7.69812V48.7547H8.98114V47.4717Z" fill="white"/>
<path d="M10.2641 47.4717H8.98108V48.7547H10.2641V47.4717Z" fill="white"/>
<path d="M14.1132 47.4717H12.8302V48.7547H14.1132V47.4717Z" fill="white"/>
<path d="M16.6793 47.4717H15.3962V48.7547H16.6793V47.4717Z" fill="white"/>
<path d="M20.5283 47.4717H19.2452V48.7547H20.5283V47.4717Z" fill="white"/>
<path d="M23.0943 47.4717H21.8113V48.7547H23.0943V47.4717Z" fill="white"/>
<path d="M24.3774 47.4717H23.0944V48.7547H24.3774V47.4717Z" fill="white"/>
<path d="M29.5095 47.4717H28.2264V48.7547H29.5095V47.4717Z" fill="white"/>
<path d="M32.0755 47.4717H30.7925V48.7547H32.0755V47.4717Z" fill="white"/>
<path d="M33.3585 47.4717H32.0754V48.7547H33.3585V47.4717Z" fill="white"/>
<path d="M34.6415 47.4717H33.3585V48.7547H34.6415V47.4717Z" fill="white"/>
<path d="M37.2076 47.4717H35.9246V48.7547H37.2076V47.4717Z" fill="white"/>
<path d="M43.6226 47.4717H42.3396V48.7547H43.6226V47.4717Z" fill="white"/>
<path d="M44.9057 47.4717H43.6227V48.7547H44.9057V47.4717Z" fill="white"/>
<path d="M48.7547 47.4717H47.4717V48.7547H48.7547V47.4717Z" fill="white"/>
<path d="M50.0378 47.4717H48.7548V48.7547H50.0378V47.4717Z" fill="white"/>
<path d="M51.3207 47.4717H50.0377V48.7547H51.3207V47.4717Z" fill="white"/>
<path d="M55.1699 47.4717H53.8868V48.7547H55.1699V47.4717Z" fill="white"/>
<path d="M56.4528 47.4717H55.1698V48.7547H56.4528V47.4717Z" fill="white"/>
<path d="M64.1509 47.4717H62.8679V48.7547H64.1509V47.4717Z" fill="white"/>
<path d="M3.84906 48.7547H2.56604V50.0377H3.84906V48.7547Z" fill="white"/>
<path d="M6.4151 48.7547H5.13208V50.0377H6.4151V48.7547Z" fill="white"/>
<path d="M7.69806 48.7547H6.41504V50.0377H7.69806V48.7547Z" fill="white"/>
<path d="M11.5472 48.7547H10.2642V50.0377H11.5472V48.7547Z" fill="white"/>
<path d="M14.1132 48.7547H12.8302V50.0377H14.1132V48.7547Z" fill="white"/>
<path d="M15.3962 48.7547H14.1132V50.0377H15.3962V48.7547Z" fill="white"/>
<path d="M17.9622 48.7547H16.6792V50.0377H17.9622V48.7547Z" fill="white"/>
<path d="M19.2453 48.7547H17.9623V50.0377H19.2453V48.7547Z" fill="white"/>
<path d="M21.8113 48.7547H20.5283V50.0377H21.8113V48.7547Z" fill="white"/>
<path d="M24.3774 48.7547H23.0944V50.0377H24.3774V48.7547Z" fill="white"/>
<path d="M25.6603 48.7547H24.3773V50.0377H25.6603V48.7547Z" fill="white"/>
<path d="M29.5095 48.7547H28.2264V50.0377H29.5095V48.7547Z" fill="white"/>
<path d="M30.7924 48.7547H29.5094V50.0377H30.7924V48.7547Z" fill="white"/>
<path d="M33.3585 48.7547H32.0754V50.0377H33.3585V48.7547Z" fill="white"/>
<path d="M37.2076 48.7547H35.9246V50.0377H37.2076V48.7547Z" fill="white"/>
<path d="M39.7736 48.7547H38.4906V50.0377H39.7736V48.7547Z" fill="white"/>
<path d="M41.0566 48.7547H39.7736V50.0377H41.0566V48.7547Z" fill="white"/>
<path d="M43.6226 48.7547H42.3396V50.0377H43.6226V48.7547Z" fill="white"/>
<path d="M48.7547 48.7547H47.4717V50.0377H48.7547V48.7547Z" fill="white"/>
<path d="M50.0378 48.7547H48.7548V50.0377H50.0378V48.7547Z" fill="white"/>
<path d="M53.8868 48.7547H52.6038V50.0377H53.8868V48.7547Z" fill="white"/>
<path d="M56.4528 48.7547H55.1698V50.0377H56.4528V48.7547Z" fill="white"/>
<path d="M57.7359 48.7547H56.4529V50.0377H57.7359V48.7547Z" fill="white"/>
<path d="M60.3019 48.7547H59.0189V50.0377H60.3019V48.7547Z" fill="white"/>
<path d="M61.5849 48.7547H60.3019V50.0377H61.5849V48.7547Z" fill="white"/>
<path d="M62.868 48.7547H61.585V50.0377H62.868V48.7547Z" fill="white"/>
<path d="M64.1509 48.7547H62.8679V50.0377H64.1509V48.7547Z" fill="white"/>
<path d="M3.84906 50.0377H2.56604V51.3207H3.84906V50.0377Z" fill="white"/>
<path d="M5.13202 50.0377H3.849V51.3207H5.13202V50.0377Z" fill="white"/>
<path d="M7.69806 50.0377H6.41504V51.3207H7.69806V50.0377Z" fill="white"/>
<path d="M8.98114 50.0377H7.69812V51.3207H8.98114V50.0377Z" fill="white"/>
<path d="M10.2641 50.0377H8.98108V51.3207H10.2641V50.0377Z" fill="white"/>
<path d="M12.8301 50.0377H11.5471V51.3207H12.8301V50.0377Z" fill="white"/>
<path d="M16.6793 50.0377H15.3962V51.3207H16.6793V50.0377Z" fill="white"/>
<path d="M17.9622 50.0377H16.6792V51.3207H17.9622V50.0377Z" fill="white"/>
<path d="M23.0943 50.0377H21.8113V51.3207H23.0943V50.0377Z" fill="white"/>
<path d="M26.9434 50.0377H25.6604V51.3207H26.9434V50.0377Z" fill="white"/>
<path d="M29.5095 50.0377H28.2264V51.3207H29.5095V50.0377Z" fill="white"/>
<path d="M30.7924 50.0377H29.5094V51.3207H30.7924V50.0377Z" fill="white"/>
<path d="M32.0755 50.0377H30.7925V51.3207H32.0755V50.0377Z" fill="white"/>
<path d="M34.6415 50.0377H33.3585V51.3207H34.6415V50.0377Z" fill="white"/>
<path d="M35.9245 50.0377H34.6415V51.3207H35.9245V50.0377Z" fill="white"/>
<path d="M37.2076 50.0377H35.9246V51.3207H37.2076V50.0377Z" fill="white"/>
<path d="M38.4905 50.0377H37.2075V51.3207H38.4905V50.0377Z" fill="white"/>
<path d="M39.7736 50.0377H38.4906V51.3207H39.7736V50.0377Z" fill="white"/>
<path d="M42.3397 50.0377H41.0566V51.3207H42.3397V50.0377Z" fill="white"/>
<path d="M46.1887 50.0377H44.9056V51.3207H46.1887V50.0377Z" fill="white"/>
<path d="M48.7547 50.0377H47.4717V51.3207H48.7547V50.0377Z" fill="white"/>
<path d="M50.0378 50.0377H48.7548V51.3207H50.0378V50.0377Z" fill="white"/>
<path d="M53.8868 50.0377H52.6038V51.3207H53.8868V50.0377Z" fill="white"/>
<path d="M55.1699 50.0377H53.8868V51.3207H55.1699V50.0377Z" fill="white"/>
<path d="M57.7359 50.0377H56.4529V51.3207H57.7359V50.0377Z" fill="white"/>
<path d="M59.0189 50.0377H57.7358V51.3207H59.0189V50.0377Z" fill="white"/>
<path d="M61.5849 50.0377H60.3019V51.3207H61.5849V50.0377Z" fill="white"/>
<path d="M64.1509 50.0377H62.8679V51.3207H64.1509V50.0377Z" fill="white"/>
<path d="M5.13202 51.3207H3.849V52.6038H5.13202V51.3207Z" fill="white"/>
<path d="M10.2641 51.3207H8.98108V52.6038H10.2641V51.3207Z" fill="white"/>
<path d="M11.5472 51.3207H10.2642V52.6038H11.5472V51.3207Z" fill="white"/>
<path d="M15.3962 51.3207H14.1132V52.6038H15.3962V51.3207Z" fill="white"/>
<path d="M16.6793 51.3207H15.3962V52.6038H16.6793V51.3207Z" fill="white"/>
<path d="M17.9622 51.3207H16.6792V52.6038H17.9622V51.3207Z" fill="white"/>
<path d="M19.2453 51.3207H17.9623V52.6038H19.2453V51.3207Z" fill="white"/>
<path d="M20.5283 51.3207H19.2452V52.6038H20.5283V51.3207Z" fill="white"/>
<path d="M25.6603 51.3207H24.3773V52.6038H25.6603V51.3207Z" fill="white"/>
<path d="M26.9434 51.3207H25.6604V52.6038H26.9434V51.3207Z" fill="white"/>
<path d="M28.2264 51.3207H26.9434V52.6038H28.2264V51.3207Z" fill="white"/>
<path d="M29.5095 51.3207H28.2264V52.6038H29.5095V51.3207Z" fill="white"/>
<path d="M30.7924 51.3207H29.5094V52.6038H30.7924V51.3207Z" fill="white"/>
<path d="M32.0755 51.3207H30.7925V52.6038H32.0755V51.3207Z" fill="white"/>
<path d="M33.3585 51.3207H32.0754V52.6038H33.3585V51.3207Z" fill="white"/>
<path d="M35.9245 51.3207H34.6415V52.6038H35.9245V51.3207Z" fill="white"/>
<path d="M37.2076 51.3207H35.9246V52.6038H37.2076V51.3207Z" fill="white"/>
<path d="M39.7736 51.3207H38.4906V52.6038H39.7736V51.3207Z" fill="white"/>
<path d="M41.0566 51.3207H39.7736V52.6038H41.0566V51.3207Z" fill="white"/>
<path d="M42.3397 51.3207H41.0566V52.6038H42.3397V51.3207Z" fill="white"/>
<path d="M43.6226 51.3207H42.3396V52.6038H43.6226V51.3207Z" fill="white"/>
<path d="M47.4717 51.3207H46.1887V52.6038H47.4717V51.3207Z" fill="white"/>
<path d="M55.1699 51.3207H53.8868V52.6038H55.1699V51.3207Z" fill="white"/>
<path d="M57.7359 51.3207H56.4529V52.6038H57.7359V51.3207Z" fill="white"/>
<path d="M60.3019 51.3207H59.0189V52.6038H60.3019V51.3207Z" fill="white"/>
<path d="M65.434 51.3207H64.151V52.6038H65.434V51.3207Z" fill="white"/>
<path d="M5.13202 52.6038H3.849V53.8868H5.13202V52.6038Z" fill="white"/>
<path d="M6.4151 52.6038H5.13208V53.8868H6.4151V52.6038Z" fill="white"/>
<path d="M7.69806 52.6038H6.41504V53.8868H7.69806V52.6038Z" fill="white"/>
<path d="M14.1132 52.6038H12.8302V53.8868H14.1132V52.6038Z" fill="white"/>
<path d="M16.6793 52.6038H15.3962V53.8868H16.6793V52.6038Z" fill="white"/>
<path d="M20.5283 52.6038H19.2452V53.8868H20.5283V52.6038Z" fill="white"/>
<path d="M23.0943 52.6038H21.8113V53.8868H23.0943V52.6038Z" fill="white"/>
<path d="M25.6603 52.6038H24.3773V53.8868H25.6603V52.6038Z" fill="white"/>
<path d="M26.9434 52.6038H25.6604V53.8868H26.9434V52.6038Z" fill="white"/>
<path d="M28.2264 52.6038H26.9434V53.8868H28.2264V52.6038Z" fill="white"/>
<path d="M29.5095 52.6038H28.2264V53.8868H29.5095V52.6038Z" fill="white"/>
<path d="M32.0755 52.6038H30.7925V53.8868H32.0755V52.6038Z" fill="white"/>
<path d="M33.3585 52.6038H32.0754V53.8868H33.3585V52.6038Z" fill="white"/>
<path d="M34.6415 52.6038H33.3585V53.8868H34.6415V52.6038Z" fill="white"/>
<path d="M35.9245 52.6038H34.6415V53.8868H35.9245V52.6038Z" fill="white"/>
<path d="M39.7736 52.6038H38.4906V53.8868H39.7736V52.6038Z" fill="white"/>
<path d="M44.9057 52.6038H43.6227V53.8868H44.9057V52.6038Z" fill="white"/>
<path d="M46.1887 52.6038H44.9056V53.8868H46.1887V52.6038Z" fill="white"/>
<path d="M56.4528 52.6038H55.1698V53.8868H56.4528V52.6038Z" fill="white"/>
<path d="M59.0189 52.6038H57.7358V53.8868H59.0189V52.6038Z" fill="white"/>
<path d="M64.1509 52.6038H62.8679V53.8868H64.1509V52.6038Z" fill="white"/>
<path d="M3.84906 53.8868H2.56604V55.1698H3.84906V53.8868Z" fill="white"/>
<path d="M5.13202 53.8868H3.849V55.1698H5.13202V53.8868Z" fill="white"/>
<path d="M6.4151 53.8868H5.13208V55.1698H6.4151V53.8868Z" fill="white"/>
<path d="M11.5472 53.8868H10.2642V55.1698H11.5472V53.8868Z" fill="white"/>
<path d="M12.8301 53.8868H11.5471V55.1698H12.8301V53.8868Z" fill="white"/>
<path d="M14.1132 53.8868H12.8302V55.1698H14.1132V53.8868Z" fill="white"/>
<path d="M15.3962 53.8868H14.1132V55.1698H15.3962V53.8868Z" fill="white"/>
<path d="M16.6793 53.8868H15.3962V55.1698H16.6793V53.8868Z" fill="white"/>
<path d="M19.2453 53.8868H17.9623V55.1698H19.2453V53.8868Z" fill="white"/>
<path d="M23.0943 53.8868H21.8113V55.1698H23.0943V53.8868Z" fill="white"/>
<path d="M26.9434 53.8868H25.6604V55.1698H26.9434V53.8868Z" fill="white"/>
<path d="M29.5095 53.8868H28.2264V55.1698H29.5095V53.8868Z" fill="white"/>
<path d="M32.0755 53.8868H30.7925V55.1698H32.0755V53.8868Z" fill="white"/>
<path d="M33.3585 53.8868H32.0754V55.1698H33.3585V53.8868Z" fill="white"/>
<path d="M34.6415 53.8868H33.3585V55.1698H34.6415V53.8868Z" fill="white"/>
<path d="M35.9245 53.8868H34.6415V55.1698H35.9245V53.8868Z" fill="white"/>
<path d="M37.2076 53.8868H35.9246V55.1698H37.2076V53.8868Z" fill="white"/>
<path d="M38.4905 53.8868H37.2075V55.1698H38.4905V53.8868Z" fill="white"/>
<path d="M39.7736 53.8868H38.4906V55.1698H39.7736V53.8868Z" fill="white"/>
<path d="M41.0566 53.8868H39.7736V55.1698H41.0566V53.8868Z" fill="white"/>
<path d="M42.3397 53.8868H41.0566V55.1698H42.3397V53.8868Z" fill="white"/>
<path d="M48.7547 53.8868H47.4717V55.1698H48.7547V53.8868Z" fill="white"/>
<path d="M50.0378 53.8868H48.7548V55.1698H50.0378V53.8868Z" fill="white"/>
<path d="M51.3207 53.8868H50.0377V55.1698H51.3207V53.8868Z" fill="white"/>
<path d="M52.6038 53.8868H51.3208V55.1698H52.6038V53.8868Z" fill="white"/>
<path d="M53.8868 53.8868H52.6038V55.1698H53.8868V53.8868Z" fill="white"/>
<path d="M55.1699 53.8868H53.8868V55.1698H55.1699V53.8868Z" fill="white"/>
<path d="M56.4528 53.8868H55.1698V55.1698H56.4528V53.8868Z" fill="white"/>
<path d="M57.7359 53.8868H56.4529V55.1698H57.7359V53.8868Z" fill="white"/>
<path d="M59.0189 53.8868H57.7358V55.1698H59.0189V53.8868Z" fill="white"/>
<path d="M60.3019 53.8868H59.0189V55.1698H60.3019V53.8868Z" fill="white"/>
<path d="M62.868 53.8868H61.585V55.1698H62.868V53.8868Z" fill="white"/>
<path d="M65.434 53.8868H64.151V55.1698H65.434V53.8868Z" fill="white"/>
<path d="M14.1132 55.1698H12.8302V56.4528H14.1132V55.1698Z" fill="white"/>
<path d="M16.6793 55.1698H15.3962V56.4528H16.6793V55.1698Z" fill="white"/>
<path d="M17.9622 55.1698H16.6792V56.4528H17.9622V55.1698Z" fill="white"/>
<path d="M21.8113 55.1698H20.5283V56.4528H21.8113V55.1698Z" fill="white"/>
<path d="M23.0943 55.1698H21.8113V56.4528H23.0943V55.1698Z" fill="white"/>
<path d="M24.3774 55.1698H23.0944V56.4528H24.3774V55.1698Z" fill="white"/>
<path d="M30.7924 55.1698H29.5094V56.4528H30.7924V55.1698Z" fill="white"/>
<path d="M32.0755 55.1698H30.7925V56.4528H32.0755V55.1698Z" fill="white"/>
<path d="M37.2076 55.1698H35.9246V56.4528H37.2076V55.1698Z" fill="white"/>
<path d="M42.3397 55.1698H41.0566V56.4528H42.3397V55.1698Z" fill="white"/>
<path d="M43.6226 55.1698H42.3396V56.4528H43.6226V55.1698Z" fill="white"/>
<path d="M46.1887 55.1698H44.9056V56.4528H46.1887V55.1698Z" fill="white"/>
<path d="M48.7547 55.1698H47.4717V56.4528H48.7547V55.1698Z" fill="white"/>
<path d="M55.1699 55.1698H53.8868V56.4528H55.1699V55.1698Z" fill="white"/>
<path d="M60.3019 55.1698H59.0189V56.4528H60.3019V55.1698Z" fill="white"/>
<path d="M15.3962 56.4528H14.1132V57.7358H15.3962V56.4528Z" fill="white"/>
<path d="M17.9622 56.4528H16.6792V57.7358H17.9622V56.4528Z" fill="white"/>
<path d="M19.2453 56.4528H17.9623V57.7358H19.2453V56.4528Z" fill="white"/>
<path d="M20.5283 56.4528H19.2452V57.7358H20.5283V56.4528Z" fill="white"/>
<path d="M23.0943 56.4528H21.8113V57.7358H23.0943V56.4528Z" fill="white"/>
<path d="M24.3774 56.4528H23.0944V57.7358H24.3774V56.4528Z" fill="white"/>
<path d="M32.0755 56.4528H30.7925V57.7358H32.0755V56.4528Z" fill="white"/>
<path d="M34.6415 56.4528H33.3585V57.7358H34.6415V56.4528Z" fill="white"/>
<path d="M37.2076 56.4528H35.9246V57.7358H37.2076V56.4528Z" fill="white"/>
<path d="M38.4905 56.4528H37.2075V57.7358H38.4905V56.4528Z" fill="white"/>
<path d="M39.7736 56.4528H38.4906V57.7358H39.7736V56.4528Z" fill="white"/>
<path d="M41.0566 56.4528H39.7736V57.7358H41.0566V56.4528Z" fill="white"/>
<path d="M43.6226 56.4528H42.3396V57.7358H43.6226V56.4528Z" fill="white"/>
<path d="M44.9057 56.4528H43.6227V57.7358H44.9057V56.4528Z" fill="white"/>
<path d="M52.6038 56.4528H51.3208V57.7358H52.6038V56.4528Z" fill="white"/>
<path d="M55.1699 56.4528H53.8868V57.7358H55.1699V56.4528Z" fill="white"/>
<path d="M57.7359 56.4528H56.4529V57.7358H57.7359V56.4528Z" fill="white"/>
<path d="M60.3019 56.4528H59.0189V57.7358H60.3019V56.4528Z" fill="white"/>
<path d="M61.5849 56.4528H60.3019V57.7358H61.5849V56.4528Z" fill="white"/>
<path d="M65.434 56.4528H64.151V57.7358H65.434V56.4528Z" fill="white"/>
<path d="M16.6793 57.7358H15.3962V59.0189H16.6793V57.7358Z" fill="white"/>
<path d="M17.9622 57.7358H16.6792V59.0189H17.9622V57.7358Z" fill="white"/>
<path d="M19.2453 57.7358H17.9623V59.0189H19.2453V57.7358Z" fill="white"/>
<path d="M20.5283 57.7358H19.2452V59.0189H20.5283V57.7358Z" fill="white"/>
<path d="M21.8113 57.7358H20.5283V59.0189H21.8113V57.7358Z" fill="white"/>
<path d="M24.3774 57.7358H23.0944V59.0189H24.3774V57.7358Z" fill="white"/>
<path d="M26.9434 57.7358H25.6604V59.0189H26.9434V57.7358Z" fill="white"/>
<path d="M29.5095 57.7358H28.2264V59.0189H29.5095V57.7358Z" fill="white"/>
<path d="M30.7924 57.7358H29.5094V59.0189H30.7924V57.7358Z" fill="white"/>
<path d="M32.0755 57.7358H30.7925V59.0189H32.0755V57.7358Z" fill="white"/>
<path d="M37.2076 57.7358H35.9246V59.0189H37.2076V57.7358Z" fill="white"/>
<path d="M38.4905 57.7358H37.2075V59.0189H38.4905V57.7358Z" fill="white"/>
<path d="M41.0566 57.7358H39.7736V59.0189H41.0566V57.7358Z" fill="white"/>
<path d="M42.3397 57.7358H41.0566V59.0189H42.3397V57.7358Z" fill="white"/>
<path d="M44.9057 57.7358H43.6227V59.0189H44.9057V57.7358Z" fill="white"/>
<path d="M51.3207 57.7358H50.0377V59.0189H51.3207V57.7358Z" fill="white"/>
<path d="M52.6038 57.7358H51.3208V59.0189H52.6038V57.7358Z" fill="white"/>
<path d="M53.8868 57.7358H52.6038V59.0189H53.8868V57.7358Z" fill="white"/>
<path d="M55.1699 57.7358H53.8868V59.0189H55.1699V57.7358Z" fill="white"/>
<path d="M60.3019 57.7358H59.0189V59.0189H60.3019V57.7358Z" fill="white"/>
<path d="M64.1509 57.7358H62.8679V59.0189H64.1509V57.7358Z" fill="white"/>
<path d="M65.434 57.7358H64.151V59.0189H65.434V57.7358Z" fill="white"/>
<path d="M14.1132 59.0189H12.8302V60.3019H14.1132V59.0189Z" fill="white"/>
<path d="M16.6793 59.0189H15.3962V60.3019H16.6793V59.0189Z" fill="white"/>
<path d="M17.9622 59.0189H16.6792V60.3019H17.9622V59.0189Z" fill="white"/>
<path d="M19.2453 59.0189H17.9623V60.3019H19.2453V59.0189Z" fill="white"/>
<path d="M24.3774 59.0189H23.0944V60.3019H24.3774V59.0189Z" fill="white"/>
<path d="M25.6603 59.0189H24.3773V60.3019H25.6603V59.0189Z" fill="white"/>
<path d="M29.5095 59.0189H28.2264V60.3019H29.5095V59.0189Z" fill="white"/>
<path d="M32.0755 59.0189H30.7925V60.3019H32.0755V59.0189Z" fill="white"/>
<path d="M33.3585 59.0189H32.0754V60.3019H33.3585V59.0189Z" fill="white"/>
<path d="M34.6415 59.0189H33.3585V60.3019H34.6415V59.0189Z" fill="white"/>
<path d="M35.9245 59.0189H34.6415V60.3019H35.9245V59.0189Z" fill="white"/>
<path d="M37.2076 59.0189H35.9246V60.3019H37.2076V59.0189Z" fill="white"/>
<path d="M39.7736 59.0189H38.4906V60.3019H39.7736V59.0189Z" fill="white"/>
<path d="M42.3397 59.0189H41.0566V60.3019H42.3397V59.0189Z" fill="white"/>
<path d="M43.6226 59.0189H42.3396V60.3019H43.6226V59.0189Z" fill="white"/>
<path d="M46.1887 59.0189H44.9056V60.3019H46.1887V59.0189Z" fill="white"/>
<path d="M47.4717 59.0189H46.1887V60.3019H47.4717V59.0189Z" fill="white"/>
<path d="M48.7547 59.0189H47.4717V60.3019H48.7547V59.0189Z" fill="white"/>
<path d="M50.0378 59.0189H48.7548V60.3019H50.0378V59.0189Z" fill="white"/>
<path d="M51.3207 59.0189H50.0377V60.3019H51.3207V59.0189Z" fill="white"/>
<path d="M52.6038 59.0189H51.3208V60.3019H52.6038V59.0189Z" fill="white"/>
<path d="M53.8868 59.0189H52.6038V60.3019H53.8868V59.0189Z" fill="white"/>
<path d="M55.1699 59.0189H53.8868V60.3019H55.1699V59.0189Z" fill="white"/>
<path d="M56.4528 59.0189H55.1698V60.3019H56.4528V59.0189Z" fill="white"/>
<path d="M57.7359 59.0189H56.4529V60.3019H57.7359V59.0189Z" fill="white"/>
<path d="M59.0189 59.0189H57.7358V60.3019H59.0189V59.0189Z" fill="white"/>
<path d="M60.3019 59.0189H59.0189V60.3019H60.3019V59.0189Z" fill="white"/>
<path d="M62.868 59.0189H61.585V60.3019H62.868V59.0189Z" fill="white"/>
<path d="M64.1509 59.0189H62.8679V60.3019H64.1509V59.0189Z" fill="white"/>
<path d="M65.434 59.0189H64.151V60.3019H65.434V59.0189Z" fill="white"/>
<path d="M14.1132 60.3019H12.8302V61.5849H14.1132V60.3019Z" fill="white"/>
<path d="M15.3962 60.3019H14.1132V61.5849H15.3962V60.3019Z" fill="white"/>
<path d="M17.9622 60.3019H16.6792V61.5849H17.9622V60.3019Z" fill="white"/>
<path d="M19.2453 60.3019H17.9623V61.5849H19.2453V60.3019Z" fill="white"/>
<path d="M20.5283 60.3019H19.2452V61.5849H20.5283V60.3019Z" fill="white"/>
<path d="M21.8113 60.3019H20.5283V61.5849H21.8113V60.3019Z" fill="white"/>
<path d="M23.0943 60.3019H21.8113V61.5849H23.0943V60.3019Z" fill="white"/>
<path d="M25.6603 60.3019H24.3773V61.5849H25.6603V60.3019Z" fill="white"/>
<path d="M26.9434 60.3019H25.6604V61.5849H26.9434V60.3019Z" fill="white"/>
<path d="M29.5095 60.3019H28.2264V61.5849H29.5095V60.3019Z" fill="white"/>
<path d="M30.7924 60.3019H29.5094V61.5849H30.7924V60.3019Z" fill="white"/>
<path d="M32.0755 60.3019H30.7925V61.5849H32.0755V60.3019Z" fill="white"/>
<path d="M35.9245 60.3019H34.6415V61.5849H35.9245V60.3019Z" fill="white"/>
<path d="M37.2076 60.3019H35.9246V61.5849H37.2076V60.3019Z" fill="white"/>
<path d="M41.0566 60.3019H39.7736V61.5849H41.0566V60.3019Z" fill="white"/>
<path d="M42.3397 60.3019H41.0566V61.5849H42.3397V60.3019Z" fill="white"/>
<path d="M50.0378 60.3019H48.7548V61.5849H50.0378V60.3019Z" fill="white"/>
<path d="M51.3207 60.3019H50.0377V61.5849H51.3207V60.3019Z" fill="white"/>
<path d="M53.8868 60.3019H52.6038V61.5849H53.8868V60.3019Z" fill="white"/>
<path d="M55.1699 60.3019H53.8868V61.5849H55.1699V60.3019Z" fill="white"/>
<path d="M59.0189 60.3019H57.7358V61.5849H59.0189V60.3019Z" fill="white"/>
<path d="M60.3019 60.3019H59.0189V61.5849H60.3019V60.3019Z" fill="white"/>
<path d="M62.868 60.3019H61.585V61.5849H62.868V60.3019Z" fill="white"/>
<path d="M64.1509 60.3019H62.8679V61.5849H64.1509V60.3019Z" fill="white"/>
<path d="M14.1132 61.5849H12.8302V62.8679H14.1132V61.5849Z" fill="white"/>
<path d="M15.3962 61.5849H14.1132V62.8679H15.3962V61.5849Z" fill="white"/>
<path d="M16.6793 61.5849H15.3962V62.8679H16.6793V61.5849Z" fill="white"/>
<path d="M17.9622 61.5849H16.6792V62.8679H17.9622V61.5849Z" fill="white"/>
<path d="M19.2453 61.5849H17.9623V62.8679H19.2453V61.5849Z" fill="white"/>
<path d="M21.8113 61.5849H20.5283V62.8679H21.8113V61.5849Z" fill="white"/>
<path d="M23.0943 61.5849H21.8113V62.8679H23.0943V61.5849Z" fill="white"/>
<path d="M24.3774 61.5849H23.0944V62.8679H24.3774V61.5849Z" fill="white"/>
<path d="M25.6603 61.5849H24.3773V62.8679H25.6603V61.5849Z" fill="white"/>
<path d="M26.9434 61.5849H25.6604V62.8679H26.9434V61.5849Z" fill="white"/>
<path d="M28.2264 61.5849H26.9434V62.8679H28.2264V61.5849Z" fill="white"/>
<path d="M29.5095 61.5849H28.2264V62.8679H29.5095V61.5849Z" fill="white"/>
<path d="M30.7924 61.5849H29.5094V62.8679H30.7924V61.5849Z" fill="white"/>
<path d="M41.0566 61.5849H39.7736V62.8679H41.0566V61.5849Z" fill="white"/>
<path d="M42.3397 61.5849H41.0566V62.8679H42.3397V61.5849Z" fill="white"/>
<path d="M43.6226 61.5849H42.3396V62.8679H43.6226V61.5849Z" fill="white"/>
<path d="M44.9057 61.5849H43.6227V62.8679H44.9057V61.5849Z" fill="white"/>
<path d="M46.1887 61.5849H44.9056V62.8679H46.1887V61.5849Z" fill="white"/>
<path d="M47.4717 61.5849H46.1887V62.8679H47.4717V61.5849Z" fill="white"/>
<path d="M48.7547 61.5849H47.4717V62.8679H48.7547V61.5849Z" fill="white"/>
<path d="M50.0378 61.5849H48.7548V62.8679H50.0378V61.5849Z" fill="white"/>
<path d="M52.6038 61.5849H51.3208V62.8679H52.6038V61.5849Z" fill="white"/>
<path d="M53.8868 61.5849H52.6038V62.8679H53.8868V61.5849Z" fill="white"/>
<path d="M56.4528 61.5849H55.1698V62.8679H56.4528V61.5849Z" fill="white"/>
<path d="M57.7359 61.5849H56.4529V62.8679H57.7359V61.5849Z" fill="white"/>
<path d="M59.0189 61.5849H57.7358V62.8679H59.0189V61.5849Z" fill="white"/>
<path d="M62.868 61.5849H61.585V62.8679H62.868V61.5849Z" fill="white"/>
<path d="M65.434 61.5849H64.151V62.8679H65.434V61.5849Z" fill="white"/>
<path d="M19.2453 62.8679H17.9623V64.1509H19.2453V62.8679Z" fill="white"/>
<path d="M25.6603 62.8679H24.3773V64.1509H25.6603V62.8679Z" fill="white"/>
<path d="M28.2264 62.8679H26.9434V64.1509H28.2264V62.8679Z" fill="white"/>
<path d="M32.0755 62.8679H30.7925V64.1509H32.0755V62.8679Z" fill="white"/>
<path d="M35.9245 62.8679H34.6415V64.1509H35.9245V62.8679Z" fill="white"/>
<path d="M37.2076 62.8679H35.9246V64.1509H37.2076V62.8679Z" fill="white"/>
<path d="M38.4905 62.8679H37.2075V64.1509H38.4905V62.8679Z" fill="white"/>
<path d="M39.7736 62.8679H38.4906V64.1509H39.7736V62.8679Z" fill="white"/>
<path d="M44.9057 62.8679H43.6227V64.1509H44.9057V62.8679Z" fill="white"/>
<path d="M56.4528 62.8679H55.1698V64.1509H56.4528V62.8679Z" fill="white"/>
<path d="M65.434 62.8679H64.151V64.1509H65.434V62.8679Z" fill="white"/>
<path d="M15.3962 64.1509H14.1132V65.434H15.3962V64.1509Z" fill="white"/>
<path d="M16.6793 64.1509H15.3962V65.434H16.6793V64.1509Z" fill="white"/>
<path d="M19.2453 64.1509H17.9623V65.434H19.2453V64.1509Z" fill="white"/>
<path d="M20.5283 64.1509H19.2452V65.434H20.5283V64.1509Z" fill="white"/>
<path d="M26.9434 64.1509H25.6604V65.434H26.9434V64.1509Z" fill="white"/>
<path d="M28.2264 64.1509H26.9434V65.434H28.2264V64.1509Z" fill="white"/>
<path d="M29.5095 64.1509H28.2264V65.434H29.5095V64.1509Z" fill="white"/>
<path d="M30.7924 64.1509H29.5094V65.434H30.7924V64.1509Z" fill="white"/>
<path d="M35.9245 64.1509H34.6415V65.434H35.9245V64.1509Z" fill="white"/>
<path d="M41.0566 64.1509H39.7736V65.434H41.0566V64.1509Z" fill="white"/>
<path d="M42.3397 64.1509H41.0566V65.434H42.3397V64.1509Z" fill="white"/>
<path d="M43.6226 64.1509H42.3396V65.434H43.6226V64.1509Z" fill="white"/>
<path d="M48.7547 64.1509H47.4717V65.434H48.7547V64.1509Z" fill="white"/>
<path d="M50.0378 64.1509H48.7548V65.434H50.0378V64.1509Z" fill="white"/>
<path d="M51.3207 64.1509H50.0377V65.434H51.3207V64.1509Z" fill="white"/>
<path d="M52.6038 64.1509H51.3208V65.434H52.6038V64.1509Z" fill="white"/>
<path d="M55.1699 64.1509H53.8868V65.434H55.1699V64.1509Z" fill="white"/>
<path d="M57.7359 64.1509H56.4529V65.434H57.7359V64.1509Z" fill="white"/>
<path d="M60.3019 64.1509H59.0189V65.434H60.3019V64.1509Z" fill="white"/>
<path d="M61.5849 64.1509H60.3019V65.434H61.5849V64.1509Z" fill="white"/>
<path d="M62.868 64.1509H61.585V65.434H62.868V64.1509Z" fill="white"/>
<path d="M64.1509 64.1509H62.8679V65.434H64.1509V64.1509Z" fill="white"/>
<path d="M65.434 64.1509H64.151V65.434H65.434V64.1509Z" fill="white"/>
</mask>
<g mask="url(#mask0_62_4615)">
<path d="M68 0H0V68H68V0Z" fill="black"/>
</g>
<path d="M2.56604 2.56604V11.5472H11.5472V2.56604H2.56604ZM10.2642 10.2642H3.84906V3.84906H10.2642V10.2642Z" fill="black"/>
<path d="M56.4529 2.56604V11.5472H65.434V2.56604H56.4529ZM64.151 10.2642H57.7359V3.84906H64.151V10.2642Z" fill="black"/>
<path d="M2.56604 56.4528V65.434H11.5472V56.4528H2.56604ZM10.2642 64.1509H3.84906V57.7358H10.2642V64.1509Z" fill="black"/>
<path d="M8.98114 5.13208H5.13208V8.98114H8.98114V5.13208Z" fill="black"/>
<path d="M62.868 5.13208H59.0189V8.98114H62.868V5.13208Z" fill="black"/>
<path d="M8.98114 59.0189H5.13208V62.8679H8.98114V59.0189Z" fill="black"/>
</svg>
