<svg width="12" height="12" viewBox="0 0 12 12" fill="none" xmlns="http://www.w3.org/2000/svg">
<path d="M1.02581 6.57909C1.13259 6.64749 1.2395 6.7155 1.34603 6.78427C1.91884 7.15432 2.49152 7.52475 3.06433 7.89493C3.89685 8.43304 4.72937 8.97102 5.56202 9.509C5.75232 9.63205 5.94377 9.75345 6.13267 9.87867C6.18174 9.91121 6.22166 9.91159 6.27263 9.88401C6.8279 9.58413 7.38406 9.28564 7.94022 8.98754C8.40129 8.74042 8.86287 8.49418 9.32432 8.24782C9.40771 8.2032 9.49148 8.15922 9.58288 8.11079C9.58365 8.15108 9.56254 8.16697 9.54691 8.18439C9.06283 8.72593 8.57811 9.2667 8.09429 9.8085C7.58656 10.3771 7.07998 10.9467 6.57251 11.5156C6.43725 11.6673 6.29933 11.8168 6.16547 11.9697C6.12924 12.011 6.10725 12.009 6.07102 11.9703C5.703 11.5782 5.33358 11.1874 4.96455 10.7962C4.59844 10.4081 4.2322 10.02 3.86634 9.63167C3.45701 9.19704 3.04781 8.76228 2.63885 8.3274C2.31838 7.98659 1.99841 7.64514 1.67781 7.30432C1.47048 7.08377 1.26251 6.86372 1.05504 6.64316C1.03966 6.62677 1.02695 6.60795 1.01297 6.59028C1.01729 6.58659 1.02148 6.58304 1.02581 6.57935V6.57909Z" fill="white"/>
<path d="M1 5.42343C1.09204 5.32504 1.18089 5.23008 1.26988 5.13525C1.62468 4.75693 1.97922 4.37823 2.33452 4.0003C2.53334 3.78903 2.73432 3.57991 2.93314 3.36863C3.33637 2.93998 3.73833 2.51018 4.14143 2.0814C4.41271 1.79296 4.68552 1.50604 4.95679 1.21761C5.3224 0.828994 5.68724 0.439747 6.05195 0.0502457C6.11678 -0.0190356 6.11996 -0.0192899 6.19585 0.0658817C6.65908 0.586191 7.12219 1.10663 7.5858 1.62656C8.07903 2.17966 8.57277 2.73239 9.06651 3.28511C9.22592 3.46359 9.38584 3.64156 9.545 3.82017C9.56089 3.83797 9.58568 3.8517 9.58288 3.8817C9.56292 3.8911 9.54958 3.87737 9.53547 3.86987C8.65617 3.39889 7.77686 2.92765 6.89782 2.45641C6.69251 2.34632 6.48632 2.23776 6.28306 2.12411C6.22369 2.09093 6.18085 2.09246 6.12237 2.13072C5.66321 2.43086 5.20112 2.72667 4.74043 3.02439C4.0644 3.46118 3.38875 3.8986 2.71284 4.33565C2.16138 4.6921 1.60993 5.04829 1.05822 5.40436C1.04322 5.41402 1.03013 5.43068 1 5.4233V5.42343Z" fill="white"/>
<path d="M9.49644 4.24031C9.44864 4.25162 9.4086 4.23548 9.36894 4.22772C8.68299 4.09424 7.99717 3.95975 7.31134 3.82538C6.5776 3.68173 5.84385 3.53821 5.11036 3.39393C5.08493 3.38897 5.04438 3.39457 5.04019 3.36495C5.03612 3.33609 5.07667 3.32935 5.09892 3.31499C5.45638 3.08375 5.81499 2.85417 6.17093 2.62065C6.22966 2.58213 6.27619 2.57717 6.33912 2.60984C6.8846 2.89218 7.43135 3.17185 7.9781 3.45177C8.45887 3.69788 8.94003 3.94284 9.4208 4.18882C9.44597 4.20166 9.47597 4.20878 9.49657 4.24043L9.49644 4.24031Z" fill="white"/>
<path d="M9.49174 7.7654C9.47241 7.79578 9.44267 7.80353 9.41724 7.8165C8.77426 8.14524 8.1309 8.47308 7.48792 8.80195C7.09765 9.00153 6.7079 9.20213 6.3184 9.40349C6.2767 9.42497 6.24238 9.42815 6.20081 9.4012C5.8258 9.15814 5.44977 8.91674 5.07438 8.67432C5.05938 8.66465 5.03472 8.65703 5.04019 8.63427C5.04463 8.61609 5.06777 8.61775 5.08392 8.61457C5.75308 8.48325 6.42238 8.35206 7.09168 8.22113C7.6486 8.11218 8.20565 8.00337 8.76269 7.89455C8.98719 7.85069 9.21156 7.80671 9.43618 7.76336C9.4522 7.76031 9.46898 7.7537 9.49174 7.7654Z" fill="white"/>
<path d="M7.78004 6.91533C7.43058 6.91533 7.081 6.91559 6.73154 6.91495C6.70739 6.91495 6.67497 6.92601 6.66162 6.8997C6.64815 6.87287 6.67701 6.85406 6.69162 6.83499C6.80629 6.68537 6.92324 6.53753 7.03625 6.38676C7.06867 6.34341 7.1096 6.34316 7.15448 6.34316C7.62902 6.34316 8.10344 6.3429 8.57798 6.34252C8.64574 6.34252 8.71362 6.34252 8.78125 6.33845C8.83007 6.3354 8.87901 6.32523 8.9127 6.28443C8.97562 6.20841 8.94232 6.09146 8.84761 6.06273C8.78049 6.04239 8.71006 6.03972 8.64002 6.03959C8.2481 6.03908 7.85631 6.03959 7.4644 6.03819C7.29227 6.03756 7.12676 6.00463 6.97841 5.91272C6.81557 5.81191 6.72836 5.66445 6.71883 5.47237C6.71082 5.31042 6.72913 5.15546 6.83044 5.01982C6.9385 4.87528 7.09168 4.80829 7.25935 4.76799C7.38101 4.73875 7.50546 4.72566 7.63105 4.72553C8.24327 4.72528 8.85536 4.7249 9.46758 4.72451C9.4761 4.72451 9.48462 4.72388 9.49301 4.72477C9.50902 4.72655 9.52987 4.71956 9.53826 4.73888C9.54627 4.75731 9.52949 4.77002 9.51958 4.78312C9.42347 4.9096 9.328 5.0366 9.23037 5.16194C9.08965 5.34283 9.15219 5.31029 8.92948 5.31118C8.49103 5.31296 8.05246 5.31118 7.61402 5.31131C7.57601 5.31131 7.53737 5.31105 7.49999 5.3169C7.42016 5.32936 7.38406 5.36978 7.38215 5.44212C7.38012 5.51814 7.41571 5.56606 7.49198 5.58271C7.55199 5.59581 7.61313 5.6014 7.67491 5.60115C8.07522 5.60013 8.47565 5.59886 8.87596 5.59911C9.02596 5.59911 9.17101 5.62949 9.30805 5.69039C9.44915 5.75306 9.54983 5.85679 9.58657 6.00883C9.64403 6.24667 9.62 6.47282 9.45716 6.66744C9.3608 6.78262 9.22656 6.83766 9.08558 6.87453C8.96634 6.9058 8.84418 6.91787 8.72062 6.91749C8.40713 6.91648 8.09365 6.91711 7.78017 6.91711V6.9152L7.78004 6.91533Z" fill="white"/>
<path d="M5.09586 6.93796C4.71247 6.93796 4.32919 6.93796 3.94579 6.93796C3.92456 6.93796 3.90334 6.93809 3.88236 6.93656C3.84155 6.93364 3.83532 6.91406 3.85833 6.88241C3.97554 6.72147 4.09313 6.56092 4.20957 6.39947C4.23474 6.36464 4.26932 6.36426 4.3058 6.36426C4.56424 6.36426 4.82255 6.36413 5.08099 6.36337C5.09892 6.36337 5.12358 6.37367 5.13349 6.35358C5.14303 6.33426 5.12091 6.31989 5.11074 6.30489C4.94281 6.05802 4.77476 5.81115 4.60606 5.56492C4.5631 5.50225 4.55928 5.50275 4.51492 5.56543C4.21402 5.99065 3.9116 6.41485 3.61375 6.84224C3.56468 6.91266 3.51231 6.94215 3.42599 6.93961C3.22501 6.93351 3.02365 6.93771 2.82242 6.93707C2.80004 6.93707 2.77106 6.94508 2.75809 6.92143C2.74475 6.8969 2.76966 6.87859 2.78237 6.86067C3.22895 6.22976 3.67515 5.5986 4.12351 4.9691C4.23207 4.81655 4.36771 4.71142 4.57047 4.70862C4.78594 4.70583 4.92183 4.82227 5.03408 4.98359C5.2371 5.27571 5.43808 5.56924 5.64033 5.862C5.86902 6.19303 6.09809 6.5238 6.32653 6.85508C6.34039 6.87516 6.36708 6.89576 6.35399 6.92143C6.3409 6.94724 6.30848 6.93847 6.28394 6.9386C5.88783 6.9391 5.49185 6.93898 5.09574 6.93898V6.93809L5.09586 6.93796Z" fill="white"/>
<path d="M11.7926 5.41822C11.7862 5.58767 11.8027 5.80162 11.7845 6.01531C11.7485 6.43748 11.532 6.70393 11.1231 6.828C10.9249 6.88813 10.722 6.91571 10.5153 6.91609C10.24 6.91673 9.9645 6.91584 9.68916 6.91495C9.66691 6.91495 9.63742 6.92436 9.62458 6.90109C9.61085 6.87618 9.6378 6.85902 9.65127 6.84173C9.76683 6.69287 9.88467 6.54566 9.99908 6.39578C10.0296 6.35574 10.0648 6.34265 10.113 6.34201C10.3034 6.33985 10.4942 6.35155 10.6843 6.32841C10.7415 6.32142 10.797 6.30909 10.8513 6.29116C11.003 6.24133 11.0878 6.13315 11.0909 5.96827C11.0956 5.72051 11.0932 5.47263 11.0936 5.22474C11.0939 5.08287 11.0949 4.94088 11.0932 4.79901C11.0926 4.74524 11.1133 4.72324 11.1683 4.72375C11.3505 4.72553 11.5327 4.72579 11.7148 4.72312C11.7736 4.72223 11.7935 4.74562 11.793 4.80168C11.7915 4.99236 11.7924 5.18292 11.7924 5.41784L11.7926 5.41822Z" fill="white"/>
</svg>
